<svg width="185" height="65" viewBox="0 0 185 65" fill="none" xmlns="http://www.w3.org/2000/svg">
<path d="M183.393 58.0846C183.393 59.7872 182.837 61.42 181.848 62.6233C180.859 63.8266 179.517 64.5018 178.119 64.5L5.50548 64.5C2.59217 64.5037 0.227794 61.6317 0.223999 58.0846V6.92379C0.227794 3.37533 2.59106 0.50092 5.50548 0.5H178.117C181.031 0.5 183.393 3.3763 183.392 6.92379L183.393 58.0846L183.393 58.0846Z" fill="black"/>
<path fill-rule="evenodd" clip-rule="evenodd" d="M37.8424 13.551C38.0708 15.6265 37.2481 17.6717 36.0457 19.1749C34.791 20.6549 32.7838 21.7868 30.8288 21.641C30.573 19.644 31.5635 17.5204 32.6723 16.2248C33.9256 14.7545 36.1021 13.628 37.8424 13.551ZM44.2421 25.5235C44.024 25.6537 40.4084 27.811 40.448 32.2108H40.448C40.4948 37.5225 45.098 39.2802 45.1531 39.2995C45.1256 39.4233 44.4322 41.8357 42.7056 44.2825C41.2638 46.4377 39.7533 48.5462 37.354 48.5833C36.2133 48.6095 35.4431 48.2819 34.6405 47.9406C33.8034 47.5845 32.931 47.2134 31.5662 47.2134C30.1199 47.2134 29.2089 47.5965 28.3305 47.9659C27.5704 48.2855 26.8348 48.5948 25.7977 48.6369C23.5126 48.7208 21.7668 46.3373 20.2728 44.2C17.286 39.8386 14.961 31.9096 18.0785 26.514C19.589 23.8677 22.3433 22.1636 25.2873 22.1183C26.5838 22.0918 27.8272 22.5913 28.9173 23.0291C29.7508 23.364 30.4947 23.6628 31.104 23.6628C31.6391 23.6628 32.3621 23.3759 33.2048 23.0416C34.5328 22.5147 36.1579 21.8698 37.8135 22.044C38.9457 22.077 42.1677 22.491 44.2465 25.5209L44.2421 25.5235Z" fill="white"/>
<path fill-rule="evenodd" clip-rule="evenodd" d="M118.493 46.9981C119.576 46.0202 120.121 44.7535 120.121 43.1952C120.121 41.9312 119.749 40.8708 119.002 40.0208C118.261 39.1708 117.102 38.4309 115.526 37.7955C114.241 37.2893 113.352 36.8176 112.865 36.3843C112.304 35.9139 112.022 35.3143 112.022 34.5922C112.022 33.9375 112.269 33.386 112.758 32.9335C113.338 32.4274 114.15 32.1729 115.185 32.1729C116.494 32.1729 117.665 32.4535 118.702 33.0146L119.438 30.6242C118.336 30.0452 116.948 29.755 115.282 29.755C113.417 29.755 111.917 30.235 110.786 31.195C109.655 32.1564 109.089 33.386 109.089 34.8879C109.089 37.1875 110.693 38.9357 113.898 40.1308C115.077 40.5641 115.916 41.0358 116.424 41.542C116.929 42.0495 117.186 42.6725 117.186 43.4166C117.186 44.2473 116.875 44.913 116.26 45.4109C115.647 45.9074 114.787 46.1578 113.681 46.1578C112.143 46.1578 110.73 45.7782 109.444 45.0162L108.765 47.4602C109.957 48.2208 111.536 48.6004 113.506 48.6004C115.639 48.6004 117.302 48.0654 118.493 46.9981ZM72.8295 48.3295H69.7052L67.9938 42.9531H62.0451L60.4148 48.3295H57.373L63.2681 30.0259H66.9083L72.8295 48.3295ZM67.4779 40.6975L65.9302 35.9181C65.7665 35.4298 65.4583 34.28 65.007 32.47H64.952C64.7704 33.2484 64.4801 34.3983 64.0826 35.9181L62.561 40.6975H67.4779ZM86.1302 46.8895C87.3505 45.587 87.96 43.8127 87.96 41.5681C87.96 39.5587 87.4385 37.9385 86.3998 36.7048C85.3598 35.4738 84.0597 34.859 82.5024 34.859C80.5103 34.859 79.0259 35.6471 78.0477 37.2233H77.9927L77.829 35.1313H75.2495C75.321 36.614 75.3581 38.0595 75.3581 39.4693V53.6811H78.2912V46.756C79.0548 48.0049 80.3122 48.6279 82.0608 48.6279C83.68 48.6279 85.0379 48.0489 86.1302 46.8895ZM84.9718 41.6754C84.9718 40.3908 84.6829 39.3318 84.1024 38.4969C83.4682 37.629 82.6166 37.1944 81.549 37.1944C80.8253 37.1944 80.1678 37.4365 79.5803 37.9137C78.9915 38.3951 78.6063 39.0237 78.4261 39.8021C78.3456 40.0933 78.2999 40.3929 78.2899 40.6947V42.8967C78.2899 43.8554 78.5843 44.6655 79.1731 45.3284C79.7619 45.9886 80.5268 46.3201 81.4678 46.3201C82.5725 46.3201 83.4324 45.8923 84.0473 45.0437C84.6637 44.1924 84.9718 43.07 84.9718 41.6754ZM101.314 46.8895C102.535 45.587 103.144 43.8127 103.144 41.5681C103.144 39.5587 102.621 37.9385 101.584 36.7048C100.541 35.4738 99.241 34.859 97.6851 34.859C95.6916 34.859 94.2072 35.6471 93.2304 37.2233H93.1754L93.0117 35.1313H90.4321C90.5037 36.614 90.5409 38.0595 90.5409 39.4693V53.6811H93.4739V46.756C94.2375 48.0049 95.4949 48.6279 97.2435 48.6279C98.8641 48.6279 100.221 48.0489 101.314 46.8895ZM100.155 41.6754C100.155 40.3908 99.8642 39.3318 99.2837 38.4969C98.6495 37.629 97.8006 37.1944 96.7331 37.1944C96.0094 37.1944 95.3518 37.4365 94.7616 37.9137C94.1728 38.3951 93.789 39.0237 93.6088 39.8021C93.5193 40.1652 93.4712 40.4609 93.4712 40.6947V42.8967C93.4712 43.8554 93.767 44.6655 94.353 45.3284C94.9418 45.9872 95.7068 46.3201 96.6505 46.3201C97.7566 46.3201 98.6165 45.8923 99.23 45.0437C99.8464 44.1924 100.155 43.07 100.155 41.6754ZM129.843 37.332H126.61V43.7398C126.61 45.3697 127.18 46.1825 128.321 46.1825C128.846 46.1825 129.28 46.1385 129.624 46.0464L129.706 48.2731C129.128 48.489 128.367 48.5977 127.424 48.5977C126.266 48.5977 125.361 48.2442 124.707 47.5373C124.057 46.8303 123.729 45.6461 123.729 43.9792V37.3264H121.803V35.1259H123.729V32.7093L126.61 31.8401V35.1259H129.843L129.843 37.332ZM142.662 46.6185C143.821 45.316 144.401 43.6505 144.401 41.6218C144.401 39.6467 143.841 38.0375 142.716 36.7914C141.538 35.5068 139.982 34.8631 138.045 34.8631C136.035 34.8631 134.437 35.5151 133.249 36.8189C132.065 38.1214 131.471 39.7966 131.471 41.8418C131.471 43.7962 132.046 45.4164 133.196 46.7024C134.346 47.9856 135.888 48.6279 137.828 48.6279C139.838 48.6279 141.45 47.9595 142.662 46.6185ZM141.361 41.6892C141.361 40.4802 141.099 39.4432 140.575 38.5753C139.96 37.5273 139.08 37.0032 137.939 37.0032C136.764 37.0032 135.863 37.5273 135.25 38.5753C134.724 39.4432 134.463 40.4981 134.463 41.7442C134.463 42.9545 134.724 43.9943 135.25 44.8594C135.884 45.9074 136.769 46.4315 137.915 46.4315C139.036 46.4315 139.915 45.8964 140.55 44.8333C141.09 43.9448 141.361 42.9009 141.361 41.6892ZM153.015 37.629C153.325 37.628 153.634 37.6551 153.939 37.7102L153.936 34.9127C153.719 34.8783 153.474 34.859 153.203 34.859C152.439 34.8601 151.695 35.1081 151.083 35.566C150.415 36.09 149.928 36.7901 149.617 37.6579H149.535L149.428 35.1327H146.873C146.933 36.5169 146.961 37.9023 146.959 39.2877V48.3295H149.892V41.4044C149.892 40.355 150.137 39.4858 150.624 38.7981C151.185 38.0169 151.983 37.629 153.015 37.629ZM167.057 41.106C167.064 41.5518 167.028 41.9972 166.95 42.436H158.15C158.183 43.7399 158.61 44.7384 159.427 45.4261C160.169 46.0395 161.127 46.3476 162.305 46.3476C163.608 46.3476 164.797 46.1413 165.866 45.7245L166.325 47.7587C165.076 48.3034 163.601 48.5743 161.899 48.5743C159.852 48.5743 158.245 47.9719 157.076 46.7698C155.909 45.5663 155.325 43.9489 155.325 41.923C155.325 39.9342 155.868 38.2768 156.956 36.9551C158.095 35.544 159.635 34.8384 161.572 34.8384C163.474 34.8384 164.915 35.544 165.893 36.9551C166.668 38.0733 167.057 39.4597 167.057 41.106ZM163.69 38.0912C164.088 38.7252 164.281 39.4748 164.26 40.3454L158.152 40.3427C158.241 39.4583 158.531 38.6963 159.02 38.0623C159.614 37.2646 160.396 36.8671 161.354 36.8671C162.401 36.8671 163.183 37.2742 163.69 38.0912Z" fill="white"/>
<path fill-rule="evenodd" clip-rule="evenodd" d="M96.8018 23.4756H95.3587V14.013H96.8018V23.4756ZM59.09 23.4481C59.6774 23.5155 60.3832 23.5554 61.199 23.5554C64.6562 23.5554 66.486 21.8747 66.486 18.7636C66.486 16.0664 64.9369 14.4119 61.5732 14.4119C60.7419 14.4095 59.9116 14.472 59.09 14.5989V23.4481ZM60.5304 15.6401C60.8509 15.5741 61.2375 15.5465 61.6915 15.5465C63.828 15.5465 64.963 16.7087 64.963 18.8034C64.963 21.1526 63.7084 22.4069 61.5044 22.4069C61.0366 22.4069 60.7037 22.3946 60.5304 22.3671V15.6401ZM71.3134 23.6228C69.4177 23.6228 68.1891 22.2075 68.1891 20.2861C68.1891 18.2836 69.4438 16.8559 71.4208 16.8559C73.289 16.8559 74.5451 18.2038 74.5451 20.1802C74.5451 22.2075 73.2505 23.6228 71.3134 23.6228ZM69.6598 20.2448C69.6598 18.8832 70.327 17.9094 71.3685 17.9094C72.3824 17.9094 73.0496 18.897 73.0496 20.2173C73.0496 21.5129 72.3686 22.5541 71.3547 22.5541C70.3408 22.5541 69.6598 21.5803 69.6598 20.2448ZM85.3557 16.9893L83.3264 23.4756H82.0043L81.1638 20.6588C80.9548 19.9698 80.7807 19.2707 80.6423 18.5641L80.6148 18.5641C80.5089 19.2711 80.3081 19.9794 80.0948 20.6588L79.2006 23.4756H77.8647L75.9552 16.9893H77.4369L78.1715 20.0729C78.3449 20.8074 78.4907 21.5006 78.6118 22.1552H78.6393C78.7452 21.6092 78.9186 20.927 79.1731 20.0867L80.0948 16.9907H81.2697L82.1515 20.0207C82.3648 20.7551 82.5381 21.4758 82.673 22.1566H82.7115C82.805 21.4896 82.9522 20.7812 83.1517 20.0207L83.94 16.9907L85.3557 16.9893ZM91.3842 23.4756H92.8259L92.8273 19.5915C92.8273 17.8971 91.9331 16.8559 90.5711 16.8559C89.6892 16.8559 88.9023 17.296 88.5144 17.9892H88.4745L88.4071 16.9879H87.1386C87.1785 17.655 87.1923 18.2698 87.1923 18.8433V23.4756H88.6341V19.6177C88.6341 18.7636 89.2215 18.0291 90.0758 18.0291C90.9439 18.0291 91.3842 18.604 91.3842 19.7511V23.4756ZM98.9342 20.2861C98.9342 22.2075 100.164 23.6228 102.059 23.6228C103.994 23.6228 105.29 22.2075 105.289 20.1802C105.289 18.2038 104.034 16.8559 102.164 16.8559C100.189 16.8559 98.9342 18.2836 98.9342 20.2861ZM102.112 17.9094C101.071 17.9094 100.404 18.8832 100.404 20.2448C100.404 21.5803 101.086 22.5541 102.097 22.5541C103.112 22.5541 103.792 21.5129 103.792 20.2173C103.793 18.897 103.128 17.9094 102.112 17.9094ZM110.869 22.7288L110.973 23.4756H110.973L112.273 23.477C112.209 23.0905 112.18 22.583 112.18 21.9283V19.5393C112.18 17.7499 111.324 16.8559 109.629 16.8559C108.75 16.8559 108.002 17.043 107.402 17.4171L107.695 18.3647C108.189 18.0442 108.75 17.8833 109.39 17.8833C110.284 17.8833 110.737 18.3111 110.737 19.1652V19.2848C108.333 19.2848 106.945 20.1128 106.945 21.7137C106.945 22.8085 107.771 23.6228 108.933 23.6228C109.748 23.6228 110.39 23.3298 110.83 22.7288H110.869ZM110.775 20.2448C109.174 20.2448 108.37 20.6327 108.37 21.5528C108.37 22.2336 108.785 22.5665 109.36 22.5665C110.093 22.5665 110.775 22.0067 110.775 21.2461V20.2448ZM119.114 22.4344L119.181 23.4756H120.465C120.426 22.942 120.411 22.3547 120.411 21.7275V14.013H118.968V17.7361H118.939C118.592 17.1475 117.977 16.8545 117.109 16.8545C115.469 16.8545 114.268 18.2836 114.268 20.3122C114.268 22.2474 115.427 23.6228 116.991 23.6228C117.964 23.6228 118.66 23.2212 119.074 22.4344H119.114ZM118.968 19.6589C118.968 18.7512 118.367 17.9768 117.449 17.9768C116.38 17.9768 115.727 18.9245 115.727 20.2586C115.727 21.5666 116.405 22.4619 117.42 22.4619C118.327 22.4619 118.968 21.6739 118.968 20.74V19.6589ZM126.438 20.2861C126.438 22.2075 127.667 23.6228 129.561 23.6228C131.499 23.6228 132.794 22.2075 132.793 20.1802C132.793 18.2038 131.538 16.8559 129.668 16.8559C127.693 16.8559 126.438 18.2836 126.438 20.2861ZM129.615 17.9094C128.575 17.9094 127.907 18.8832 127.907 20.2448C127.907 21.5803 128.588 22.5541 129.601 22.5541C130.616 22.5541 131.296 21.5129 131.296 20.2173C131.299 18.897 130.631 17.9094 129.615 17.9094ZM139.103 23.4756H140.546V19.5902C140.546 17.8957 139.651 16.8545 138.289 16.8545C137.408 16.8545 136.62 17.296 136.233 17.9892H136.193L136.126 16.9879H134.858C134.898 17.655 134.911 18.2698 134.911 18.8433V23.4756H136.354V19.6177C136.354 18.7636 136.941 18.0291 137.795 18.0291C138.663 18.0291 139.103 18.604 139.103 19.7511V23.4756ZM150.247 18.0704H148.66V21.22C148.66 22.0218 148.938 22.4221 149.5 22.4221C149.754 22.4221 149.967 22.3946 150.139 22.3547L150.179 23.4495C149.9 23.5568 149.526 23.6104 149.061 23.6104C147.924 23.6104 147.245 22.9832 147.245 21.341V18.0704H146.298V16.9893H147.245V15.801L148.66 15.3733V16.9879H150.247V18.0704ZM156.439 23.4756H157.879V19.6177C157.879 17.9218 157.04 16.8545 155.667 16.8545C154.828 16.8545 154.17 17.2025 153.716 17.9094H153.687V14.013H152.247V23.4756H153.687V19.5654C153.687 18.538 154.384 18.0305 155.131 18.0305C156 18.0305 156.439 18.6178 156.439 19.7786V23.4756ZM165.699 20.5791H161.372C161.4 21.8073 162.213 22.5005 163.417 22.5005C164.056 22.5005 164.645 22.3932 165.165 22.1938L165.39 23.195C164.776 23.4618 164.054 23.5953 163.213 23.5953C161.184 23.5953 159.983 22.3134 159.983 20.326C159.983 18.3372 161.213 16.8422 163.051 16.8422C164.709 16.8422 165.749 18.0704 165.749 19.9258C165.758 20.1447 165.741 20.364 165.699 20.5791ZM162.95 17.8434C162.122 17.8434 161.467 18.5641 161.374 19.5516ZM161.374 19.5516H164.377Z" fill="white"/>
</svg>
