<svg width="14" height="14" viewBox="0 0 14 14" fill="none" xmlns="http://www.w3.org/2000/svg">
<g id="shapes-and-symbols (1)">
<g id="Group 18">
<path id="Path 56" fill-rule="evenodd" clip-rule="evenodd" d="M7 0C8.86977 0 10.6276 0.728137 11.9497 2.05023C13.2719 3.37239 14 5.13023 14 7C14 8.86977 13.2719 10.6276 11.9497 11.9498C10.6276 13.2719 8.86977 14 7 14C5.13023 14 3.37236 13.2719 2.05023 11.9497C0.728137 10.6276 0 8.86977 0 7C0 5.13023 0.728137 3.37236 2.05023 2.05023C3.37236 0.728137 5.13021 0 7 0ZM6.43237 9.24599L10.3443 5.33403C10.5045 5.17385 10.5045 4.91416 10.3443 4.75398C10.1841 4.5938 9.92441 4.5938 9.76426 4.75398L6.14236 8.37594L4.23574 6.46934C4.07556 6.30916 3.81585 6.30916 3.6557 6.46934C3.49552 6.62955 3.49552 6.88923 3.6557 7.04938L5.85233 9.24599C5.93242 9.32608 6.03739 9.36611 6.14236 9.36611C6.24731 9.36611 6.35228 9.32608 6.43237 9.24599Z" fill="#00A991"/>
</g>
</g>
</svg>
