<svg width="20" height="21" viewBox="0 0 20 21" fill="none" xmlns="http://www.w3.org/2000/svg">
<path fill-rule="evenodd" clip-rule="evenodd" d="M5 4.53394V1.53394C5 0.981651 5.44772 0.533936 6 0.533936H14C14.5523 0.533936 15 0.981651 15 1.53394V4.53394H19C19.5523 4.53394 20 4.98165 20 5.53394V19.5339C20 20.0862 19.5523 20.5339 19 20.5339H1C0.447715 20.5339 0 20.0862 0 19.5339V5.53394C0 4.98165 0.447715 4.53394 1 4.53394H5ZM2 15.5339V18.5339H18V15.5339H2ZM18 13.5339H2V6.53394H18V13.5339ZM7 2.53394V4.53394H13V2.53394H7ZM11 10.5339H9V12.5339H11V10.5339Z" fill="#101C3D"/>
</svg>
