<svg width="21" height="21" viewBox="0 0 21 21" fill="none" xmlns="http://www.w3.org/2000/svg">
<path d="M10.5002 7.76662C8.99495 7.76662 7.76653 8.99504 7.76653 10.5003C7.76653 12.0056 8.99495 13.234 10.5002 13.234C12.0055 13.234 13.2339 12.0056 13.2339 10.5003C13.2339 8.99504 12.0055 7.76662 10.5002 7.76662ZM18.6993 10.5003C18.6993 9.36828 18.7095 8.24651 18.6459 7.11653C18.5824 5.80403 18.2829 4.63918 17.3232 3.67942C16.3614 2.7176 15.1986 2.42024 13.8861 2.35666C12.754 2.29309 11.6323 2.30334 10.5023 2.30334C9.37024 2.30334 8.24847 2.29309 7.11849 2.35666C5.80598 2.42024 4.64114 2.71965 3.68137 3.67942C2.71956 4.64123 2.42219 5.80403 2.35862 7.11653C2.29504 8.24856 2.3053 9.37033 2.3053 10.5003C2.3053 11.6303 2.29504 12.7541 2.35862 13.8841C2.42219 15.1966 2.72161 16.3614 3.68137 17.3212C4.64319 18.283 5.80598 18.5804 7.11849 18.644C8.25052 18.7075 9.3723 18.6973 10.5023 18.6973C11.6343 18.6973 12.7561 18.7075 13.8861 18.644C15.1986 18.5804 16.3634 18.281 17.3232 17.3212C18.285 16.3594 18.5824 15.1966 18.6459 13.8841C18.7116 12.7541 18.6993 11.6323 18.6993 10.5003ZM10.5002 14.7065C8.17259 14.7065 6.29407 12.8279 6.29407 10.5003C6.29407 8.17268 8.17259 6.29416 10.5002 6.29416C12.8279 6.29416 14.7064 8.17268 14.7064 10.5003C14.7064 12.8279 12.8279 14.7065 10.5002 14.7065ZM14.8786 7.10422C14.3352 7.10422 13.8963 6.66535 13.8963 6.1219C13.8963 5.57844 14.3352 5.13957 14.8786 5.13957C15.4221 5.13957 15.861 5.57844 15.861 6.1219C15.8611 6.25094 15.8358 6.37875 15.7865 6.49801C15.7372 6.61726 15.6649 6.72562 15.5736 6.81687C15.4824 6.90812 15.374 6.98047 15.2548 7.02978C15.1355 7.07909 15.0077 7.10438 14.8786 7.10422Z" fill="#33A0A6"/>
</svg>
