<svg width="109" height="32" viewBox="0 0 109 32" fill="none" xmlns="http://www.w3.org/2000/svg">
<g clip-path="url(#clip0_129401_191627)">
<path d="M97.0456 19.8023H104.445L96.8525 30.3947V32H108.549V29.3592H100.787L108.549 18.492V17.1816H97.0456V19.8023Z" fill="black"/>
<path d="M93.1428 29.2521H84.7376V25.9113H92.8415V23.308H84.7376V19.8862H93.1428V17.1816H81.9377V32H93.1428V29.2521Z" fill="black"/>
<path d="M77.3912 29.2521H68.9888V25.9113H77.0927V23.308H68.9888V19.8862H77.3912V17.1816H66.186V32H77.3912V29.2521Z" fill="black"/>
<path d="M54.542 32H57.3652V19.7184H62.1105V17.1816H49.7937V19.7184H54.542V32Z" fill="black"/>
<path d="M42.8543 26.3711L35.5198 17.1815H33.2319V31.9999H36.0551V22.0092L43.9221 31.9999H45.6775V10.6184L42.8543 12.0357V26.3711Z" fill="black"/>
<path d="M27.9805 29.2521H19.5781V25.9113H27.6821V23.308H19.5781V19.8862H27.9805V17.1816H16.7754V32H27.9805V29.2521Z" fill="black"/>
<path d="M7.12119 19.7821C7.51438 19.775 7.90511 19.8448 8.27095 19.9874C8.57455 20.1108 8.84715 20.2984 9.06965 20.537C9.27493 20.7575 9.43403 21.0161 9.53775 21.2977C9.6365 21.5766 9.68694 21.87 9.68695 22.1655C9.68652 22.4607 9.6371 22.7539 9.54067 23.0332C9.4373 23.327 9.27118 23.5953 9.0536 23.8199C8.83602 24.0445 8.57208 24.2201 8.27973 24.3349C7.90669 24.477 7.50917 24.5458 7.10948 24.5374H2.82346V19.7821H7.12119ZM13.265 31.8121L8.7332 26.7588C9.36849 26.6411 9.97642 26.4087 10.5266 26.0733C10.9881 25.7904 11.3863 25.4173 11.6969 24.977C11.9873 24.5599 12.2021 24.0959 12.3317 23.606C12.4633 23.1133 12.5282 22.6056 12.5248 22.0961C12.5287 21.4637 12.4105 20.8364 12.1766 20.2477C11.9473 19.6623 11.5988 19.1297 11.1527 18.6829C10.6732 18.2082 10.098 17.8387 9.46461 17.5982C8.71772 17.3156 7.92378 17.1743 7.12412 17.1817C5.93632 17.1932 4.74949 17.1932 3.56364 17.1817H0.00317383V32.0001H2.82639V27.0539H5.54136L9.90345 32.0001H13.2591V31.8178L13.265 31.8121Z" fill="black"/>
<path d="M57.7866 0L65.7589 4.42556L73.7312 0L98.2829 13.6325L73.7312 3.54334L68.234 5.80241L82.3413 13.6325L57.7866 3.54334L33.2319 13.6325L42.8543 8.28998V5.05903H45.6775V6.72223L57.7866 0Z" fill="#33A0A6"/>
<path fill-rule="evenodd" clip-rule="evenodd" d="M55.8062 7.75781H57.4474V9.38051H55.8062V7.75781ZM57.4474 10.0516V11.6743H55.8062V10.0516H57.4474ZM58.1262 7.75781H59.7674V9.38051H58.1262V7.75781ZM59.7674 10.0516V11.6743H58.1262V10.0516H59.7674Z" fill="white"/>
</g>
<defs>
<clipPath id="clip0_129401_191627">
<rect width="108.549" height="32" fill="white"/>
</clipPath>
</defs>
</svg>
