<svg width="108" height="33" viewBox="0 0 108 33" fill="none" xmlns="http://www.w3.org/2000/svg">
<g clip-path="url(#clip0_129440_191599)">
<path d="M96.0769 20.3364H103.392L95.886 30.9289V32.5342H107.45V29.8933H99.7764L107.45 19.0261V17.7158H96.0769V20.3364Z" fill="white"/>
<path d="M92.2183 29.7863H83.908V26.4455H91.9203V23.8422H83.908V20.4203H92.2183V17.7158H81.1399V32.5342H92.2183V29.7863Z" fill="white"/>
<path d="M76.6448 29.7863H68.3375V26.4455H76.3498V23.8422H68.3375V20.4203H76.6448V17.7158H65.5664V32.5342H76.6448V29.7863Z" fill="white"/>
<path d="M54.0542 32.5342H56.8455V20.2526H61.5371V17.7158H49.3596V20.2526H54.0542V32.5342Z" fill="white"/>
<path d="M42.4986 26.9053L35.2471 17.7157H32.9851V32.5341H35.7764V22.5433L43.5544 32.5341H45.2899V11.1526L42.4986 12.5699V26.9053Z" fill="white"/>
<path d="M27.793 29.7863H19.4856V26.4455H27.4979V23.8422H19.4856V20.4203H27.793V17.7158H16.7146V32.5342H27.793V29.7863Z" fill="white"/>
<path d="M7.16934 20.3162C7.55809 20.3092 7.9444 20.379 8.3061 20.5216C8.60626 20.645 8.87579 20.8326 9.09577 21.0712C9.29873 21.2917 9.45603 21.5503 9.55857 21.8319C9.65621 22.1108 9.70608 22.4042 9.70609 22.6997C9.70566 22.9949 9.65681 23.288 9.56146 23.5674C9.45926 23.8612 9.29502 24.1294 9.0799 24.354C8.86479 24.5786 8.60383 24.7543 8.31478 24.8691C7.94596 25.0112 7.55294 25.08 7.15777 25.0715H2.92023V20.3162H7.16934ZM13.2436 32.3462L8.76313 27.293C9.39123 27.1752 9.99229 26.9429 10.5362 26.6075C10.9925 26.3246 11.3862 25.9515 11.6933 25.5112C11.9804 25.0941 12.1928 24.6301 12.3209 24.1401C12.451 23.6475 12.5152 23.1398 12.5118 22.6303C12.5157 21.9979 12.3989 21.3705 12.1676 20.7819C11.9409 20.1965 11.5963 19.6639 11.1552 19.2171C10.6812 18.7424 10.1125 18.3728 9.48626 18.1324C8.74782 17.8498 7.96286 17.7085 7.17224 17.7158C5.99787 17.7274 4.82447 17.7274 3.65203 17.7158H0.131836V32.5343H2.92312V27.588H5.60738L9.92014 32.5343H13.2379V32.352L13.2436 32.3462Z" fill="white"/>
<path d="M57.2621 0.53418L65.1442 4.95974L73.0263 0.53418L97.3004 14.1666L73.0263 4.07752L67.5913 6.33658L81.539 14.1666L57.2621 4.07752L32.9851 14.1666L42.4986 8.82415V5.5932H45.2899V7.25641L57.2621 0.53418Z" fill="#33A0A6"/>
<path fill-rule="evenodd" clip-rule="evenodd" d="M55.3037 8.29199H56.9264V9.91469H55.3037V8.29199ZM56.9264 10.5858V12.2085H55.3037V10.5858H56.9264ZM57.5975 8.29199H59.2202V9.91469H57.5975V8.29199ZM59.2202 10.5858V12.2085H57.5975V10.5858H59.2202Z" fill="white"/>
</g>
<defs>
<clipPath id="clip0_129440_191599">
<rect width="107.321" height="32" fill="white" transform="translate(0.128906 0.53418)"/>
</clipPath>
</defs>
</svg>
