<svg width="228" height="202" viewBox="0 0 228 202" fill="none" xmlns="http://www.w3.org/2000/svg">
<path fill-rule="evenodd" clip-rule="evenodd" d="M41.4486 144.723C126.196 175.831 199.532 188.421 205.251 172.843C205.404 172.424 205.507 171.989 205.561 171.539L205.709 171.593L215.142 145.894L107.143 106.251C93.0811 100.162 77.979 94.1185 62.1559 88.3104C46.3329 82.5022 30.9076 77.3397 16.2459 72.8854L-91.7543 33.2421L-101.188 58.9412L-101.039 58.9956C-101.29 59.3738 -101.492 59.7721 -101.646 60.1908C-107.364 75.7688 -43.2985 113.615 41.4486 144.723Z" fill="#33A0A6"/>
<path d="M205.561 171.539L205.647 171.304L205.351 171.195L205.313 171.509L205.561 171.539ZM205.709 171.593L205.623 171.828L205.857 171.914L205.944 171.679L205.709 171.593ZM215.142 145.894L215.377 145.98L215.463 145.745L215.228 145.659L215.142 145.894ZM107.143 106.251L107.043 106.48L107.05 106.483L107.056 106.485L107.143 106.251ZM16.2459 72.8854L16.1598 73.1201L16.1665 73.1226L16.1733 73.1246L16.2459 72.8854ZM-91.7543 33.2421L-91.6681 33.0074L-91.9028 32.9212L-91.9889 33.1559L-91.7543 33.2421ZM-101.188 58.9412L-101.422 58.8551L-101.508 59.0897L-101.274 59.1759L-101.188 58.9412ZM-101.039 58.9956L-100.831 59.1336L-100.656 58.8699L-100.953 58.7609L-101.039 58.9956ZM205.016 172.756C204.335 174.611 202.637 176.079 199.954 177.151C197.271 178.222 193.636 178.884 189.147 179.146C180.171 179.669 167.841 178.587 153.028 176.044C123.404 170.958 83.8986 160.039 41.5348 144.488L41.3625 144.958C83.7458 160.515 123.282 171.445 152.943 176.536C167.772 179.082 180.145 180.171 189.176 179.645C193.691 179.382 197.386 178.715 200.139 177.615C202.891 176.515 204.736 174.969 205.485 172.929L205.016 172.756ZM205.313 171.509C205.262 171.941 205.163 172.356 205.016 172.756L205.485 172.929C205.646 172.491 205.753 172.038 205.81 171.568L205.313 171.509ZM205.795 171.358L205.647 171.304L205.475 171.773L205.623 171.828L205.795 171.358ZM214.908 145.808L205.474 171.507L205.944 171.679L215.377 145.98L214.908 145.808ZM107.056 106.485L215.056 146.129L215.228 145.659L107.229 106.016L107.056 106.485ZM62.0698 88.545C77.8885 94.3516 92.9862 100.393 107.043 106.48L107.242 106.021C93.1759 99.9302 78.0694 93.8854 62.2421 88.0757L62.0698 88.545ZM16.1733 73.1246C30.8302 77.5774 46.251 82.7385 62.0698 88.545L62.2421 88.0757C46.4147 82.266 30.9849 77.1019 16.3186 72.6462L16.1733 73.1246ZM-91.8404 33.4768L16.1598 73.1201L16.3321 72.6507L-91.6681 33.0074L-91.8404 33.4768ZM-100.953 59.0274L-91.5196 33.3282L-91.9889 33.1559L-101.422 58.8551L-100.953 59.0274ZM-100.953 58.7609L-101.101 58.7065L-101.274 59.1759L-101.126 59.2303L-100.953 58.7609ZM-101.411 60.277C-101.264 59.877 -101.071 59.496 -100.831 59.1336L-101.248 58.8576C-101.509 59.2516 -101.72 59.6673 -101.881 60.1047L-101.411 60.277ZM41.5348 144.488C-0.829041 128.938 -38.0176 111.705 -63.896 96.418C-76.837 88.7732 -86.9388 81.6211 -93.4448 75.4155C-96.6986 72.312 -99.0419 69.4556 -100.394 66.9027C-101.747 64.3488 -102.092 62.1312 -101.411 60.277L-101.881 60.1047C-102.63 62.1449 -102.223 64.5177 -100.836 67.1368C-99.4482 69.7568 -97.0624 72.656 -93.7899 75.7773C-87.2436 82.0213 -77.1043 89.196 -64.1503 96.8485C-38.2387 112.156 -1.02083 129.4 41.3625 144.958L41.5348 144.488Z" fill="black" fill-opacity="0.5"/>
<path d="M161.497 153.101C96.7899 144.131 -0.36812 108.468 -55.5115 73.4437C-110.655 38.4198 -102.902 17.2985 -38.1948 26.2679C26.5123 35.2373 123.67 70.9009 178.814 105.925C233.957 140.949 226.204 162.07 161.497 153.101Z" fill="#33A0A6"/>
<path d="M-55.8053 41.0082L51.1693 55.8366L110.686 93.6382L94.9456 91.4563L52.0987 64.2424L22.7571 60.1752L61.697 84.9076L46.4149 82.7893L7.47496 58.0569L-23.3949 53.7779L19.4521 80.9918L3.71154 78.8099L-55.8053 41.0082Z" fill="black" fill-opacity="0.15"/>
<path d="M15.8917 86.546L30.8681 88.6219L148.45 125.743L106.905 99.3558L123.257 101.622L184.076 140.251L169.1 138.175L51.2576 100.889L93.7139 127.855L77.362 125.588L15.8917 86.546Z" fill="black" fill-opacity="0.15"/>
<path d="M-55.8053 41.0082L-55.771 40.7606L-55.9394 41.2193L-55.8053 41.0082ZM51.1693 55.8366L51.3033 55.6255L51.2574 55.5964L51.2036 55.5889L51.1693 55.8366ZM110.686 93.6382L110.652 93.8858L110.82 93.4272L110.686 93.6382ZM94.9456 91.4563L94.8116 91.6673L94.8574 91.6965L94.9113 91.7039L94.9456 91.4563ZM52.0987 64.2424L52.2327 64.0314L52.1868 64.0023L52.133 63.9948L52.0987 64.2424ZM22.7571 60.1752L22.7914 59.9276L22.623 60.3863L22.7571 60.1752ZM61.697 84.9076L61.6626 85.1552L61.831 84.6966L61.697 84.9076ZM46.4149 82.7893L46.2808 83.0003L46.3267 83.0294L46.3806 83.0369L46.4149 82.7893ZM7.47496 58.0569L7.609 57.8459L7.56312 57.8167L7.50929 57.8093L7.47496 58.0569ZM-23.3949 53.7779L-23.3605 53.5303L-23.5289 53.9889L-23.3949 53.7779ZM19.4521 80.9918L19.4178 81.2394L19.5861 80.7807L19.4521 80.9918ZM3.71154 78.8099L3.5775 79.0209L3.62338 79.0501L3.67722 79.0575L3.71154 78.8099ZM15.8917 86.546L15.926 86.2983L15.7576 86.757L15.8917 86.546ZM30.8681 88.6219L30.9434 88.3835L30.9233 88.3772L30.9024 88.3743L30.8681 88.6219ZM148.45 125.743L148.374 125.981L148.584 125.531L148.45 125.743ZM106.905 99.3558L106.939 99.1082L106.771 99.5669L106.905 99.3558ZM123.257 101.622L123.391 101.411L123.345 101.382L123.291 101.375L123.257 101.622ZM184.076 140.251L184.042 140.499L184.21 140.04L184.076 140.251ZM169.1 138.175L169.024 138.414L169.044 138.42L169.065 138.423L169.1 138.175ZM51.2576 100.889L51.3331 100.651L51.1236 101.1L51.2576 100.889ZM93.7139 127.855L93.6796 128.103L93.8479 127.644L93.7139 127.855ZM77.362 125.588L77.228 125.799L77.2739 125.829L77.3277 125.836L77.362 125.588ZM161.531 152.853C96.8597 143.888 -0.264316 108.237 -55.3775 73.2326L-55.6456 73.6547C-0.471926 108.698 96.7201 144.374 161.463 153.348L161.531 152.853ZM-55.3775 73.2326C-69.1549 64.482 -78.9877 56.6095 -84.982 49.8693C-87.9793 46.4992 -90.008 43.4219 -91.0943 40.6689C-92.1797 37.9178 -92.3189 35.5053 -91.5624 33.4445C-90.806 31.3837 -89.139 29.6341 -86.5315 28.2386C-83.9221 26.8421 -80.3843 25.8082 -75.9185 25.1775C-66.987 23.9161 -54.3961 24.2745 -38.2291 26.5155L-38.1605 26.0203C-54.3471 23.7765 -66.9905 23.4116 -75.9884 24.6824C-80.4872 25.3177 -84.0879 26.3637 -86.7674 27.7978C-89.4489 29.2328 -91.2214 31.0644 -92.0318 33.2722C-92.8422 35.4799 -92.6756 38.0233 -91.5594 40.8524C-90.4439 43.6795 -88.3751 46.8065 -85.3557 50.2016C-79.3167 56.9918 -69.4398 64.8934 -55.6456 73.6547L-55.3775 73.2326ZM-38.2291 26.5155C26.4425 35.48 123.567 71.1311 178.68 106.136L178.948 105.714C123.774 70.6706 26.5821 34.9946 -38.1605 26.0203L-38.2291 26.5155ZM178.68 106.136C192.457 114.886 202.29 122.759 208.284 129.499C211.282 132.869 213.31 135.946 214.397 138.7C215.482 141.451 215.621 143.863 214.865 145.924C214.108 147.985 212.441 149.734 209.834 151.13C207.224 152.526 203.687 153.56 199.221 154.191C190.289 155.452 177.698 155.094 161.531 152.853L161.463 153.348C177.649 155.592 190.293 155.957 199.291 154.686C203.789 154.051 207.39 153.005 210.07 151.571C212.751 150.136 214.524 148.304 215.334 146.096C216.144 143.888 215.978 141.345 214.862 138.516C213.746 135.689 211.677 132.562 208.658 129.167C202.619 122.377 192.742 114.475 178.948 105.714L178.68 106.136ZM-55.8397 41.2559L51.1349 56.0842L51.2036 55.5889L-55.771 40.7606L-55.8397 41.2559ZM51.0352 56.0476L110.552 93.8492L110.82 93.4272L51.3033 55.6255L51.0352 56.0476ZM110.72 93.3906L94.9799 91.2087L94.9113 91.7039L110.652 93.8858L110.72 93.3906ZM95.0796 91.2453L52.2327 64.0314L51.9646 64.4535L94.8116 91.6673L95.0796 91.2453ZM52.133 63.9948L22.7914 59.9276L22.7227 60.4229L52.0643 64.4901L52.133 63.9948ZM22.623 60.3863L61.5629 85.1186L61.831 84.6966L22.8911 59.9642L22.623 60.3863ZM61.7313 84.66L46.4492 82.5416L46.3806 83.0369L61.6626 85.1552L61.7313 84.66ZM46.5489 82.5782L7.609 57.8459L7.34092 58.2679L46.2808 83.0003L46.5489 82.5782ZM7.50929 57.8093L-23.3605 53.5303L-23.4292 54.0255L7.44064 58.3045L7.50929 57.8093ZM-23.5289 53.9889L19.3181 81.2028L19.5861 80.7807L-23.2608 53.5669L-23.5289 53.9889ZM19.4864 80.7441L3.74587 78.5623L3.67722 79.0575L19.4178 81.2394L19.4864 80.7441ZM3.84558 78.5989L-55.6713 40.7972L-55.9394 41.2193L3.5775 79.0209L3.84558 78.5989ZM15.8573 86.7936L30.8338 88.8696L30.9024 88.3743L15.926 86.2983L15.8573 86.7936ZM30.7928 88.8603L148.374 125.981L148.525 125.504L30.9434 88.3835L30.7928 88.8603ZM148.584 125.531L107.039 99.1448L106.771 99.5669L148.316 125.954L148.584 125.531ZM106.871 99.6035L123.223 101.87L123.291 101.375L106.939 99.1082L106.871 99.6035ZM123.123 101.833L183.942 140.462L184.21 140.04L123.391 101.411L123.123 101.833ZM184.111 140.004L169.134 137.928L169.065 138.423L184.042 140.499L184.111 140.004ZM169.175 137.937L51.3331 100.651L51.1822 101.128L169.024 138.414L169.175 137.937ZM51.1236 101.1L93.5798 128.066L93.8479 127.644L51.3917 100.678L51.1236 101.1ZM93.7482 127.607L77.3964 125.341L77.3277 125.836L93.6796 128.103L93.7482 127.607ZM77.4961 125.377L16.0257 86.3349L15.7576 86.757L77.228 125.799L77.4961 125.377Z" fill="black" fill-opacity="0.5"/>
</svg>
