<svg width="242" height="195" viewBox="0 0 242 195" fill="none" xmlns="http://www.w3.org/2000/svg">
<path fill-rule="evenodd" clip-rule="evenodd" d="M154.778 141.726C240.26 170.755 313.882 181.55 319.218 165.837C319.361 165.415 319.454 164.978 319.497 164.526L319.646 164.577L328.449 138.655L219.513 101.661C205.307 95.9167 190.062 90.2442 174.102 84.8242C158.142 79.4041 142.595 74.6197 127.829 70.5248L18.8929 33.5303L10.0899 59.4521L10.2393 59.5029C9.99832 59.8871 9.80557 60.2902 9.66214 60.7126C4.32605 76.4255 69.2967 112.696 154.778 141.726Z" fill="#33A0A6"/>
<path d="M319.497 164.526L319.577 164.29L319.278 164.188L319.248 164.503L319.497 164.526ZM319.646 164.577L319.565 164.814L319.802 164.894L319.882 164.657L319.646 164.577ZM328.449 138.655L328.685 138.735L328.766 138.499L328.529 138.418L328.449 138.655ZM219.513 101.661L219.419 101.892L219.426 101.895L219.433 101.897L219.513 101.661ZM127.829 70.5248L127.748 70.7615L127.755 70.7638L127.762 70.7657L127.829 70.5248ZM18.8929 33.5303L18.9733 33.2936L18.7366 33.2132L18.6562 33.4499L18.8929 33.5303ZM10.0899 59.4521L9.85318 59.3717L9.77279 59.6085L10.0095 59.6888L10.0899 59.4521ZM10.2393 59.5029L10.4511 59.6357L10.6191 59.3678L10.3197 59.2661L10.2393 59.5029ZM318.981 165.757C318.346 167.627 316.684 169.136 314.028 170.273C311.372 171.41 307.754 172.161 303.273 172.532C294.313 173.274 281.96 172.493 267.089 170.312C237.35 165.952 197.589 156 154.859 141.489L154.698 141.962C197.448 156.48 237.239 166.441 267.016 170.807C281.903 172.99 294.299 173.776 303.314 173.03C307.821 172.657 311.499 171.9 314.224 170.733C316.949 169.567 318.756 167.976 319.455 165.918L318.981 165.757ZM319.248 164.503C319.207 164.935 319.118 165.353 318.981 165.757L319.455 165.918C319.604 165.476 319.701 165.02 319.746 164.55L319.248 164.503ZM319.726 164.34L319.577 164.29L319.416 164.763L319.565 164.814L319.726 164.34ZM328.212 138.575L319.409 164.496L319.882 164.657L328.685 138.735L328.212 138.575ZM219.433 101.897L328.368 138.892L328.529 138.418L219.594 101.424L219.433 101.897ZM174.021 85.0609C189.977 90.4795 205.218 96.1503 219.419 101.892L219.607 101.429C205.396 95.6831 190.147 90.009 174.182 84.5874L174.021 85.0609ZM127.762 70.7657C142.523 74.8593 158.066 79.6423 174.021 85.0609L174.182 84.5874C158.218 79.1659 142.666 74.3801 127.896 70.2839L127.762 70.7657ZM18.8125 33.767L127.748 70.7615L127.909 70.2881L18.9733 33.2936L18.8125 33.767ZM10.3266 59.5325L19.1296 33.6107L18.6562 33.4499L9.85318 59.3717L10.3266 59.5325ZM10.3197 59.2661L10.1703 59.2154L10.0095 59.6888L10.1589 59.7396L10.3197 59.2661ZM9.89887 60.793C10.0359 60.3895 10.2201 60.0039 10.4511 59.6357L10.0275 59.37C9.7765 59.7702 9.57526 60.191 9.42542 60.6322L9.89887 60.793ZM154.859 141.489C112.128 126.978 74.5294 110.658 48.2854 96.0072C35.1616 88.6806 24.8883 81.7773 18.2326 75.7324C14.904 72.7093 12.4917 69.911 11.0775 67.3919C9.66272 64.8718 9.26371 62.6633 9.89887 60.793L9.42542 60.6322C8.72655 62.6901 9.19061 65.0522 10.6415 67.6367C12.0929 70.222 14.5488 73.0621 17.8964 76.1026C24.5933 82.1849 34.9047 89.1098 48.0417 96.4437C74.3194 111.114 111.947 127.444 154.698 141.962L154.859 141.489Z" fill="black" fill-opacity="0.5"/>
<path d="M274.995 147.169C210.089 139.782 112.089 106.502 56.1065 72.8348C0.124353 39.1678 7.35928 17.8635 72.2661 25.2502C137.173 32.637 235.173 65.9176 291.155 99.5846C347.137 133.252 339.902 154.556 274.995 147.169Z" fill="#33A0A6"/>
<path d="M55.0208 40.4162L162.326 52.6281L222.748 88.9652L206.959 87.1683L163.46 61.0088L134.028 57.6592L173.56 81.4334L158.231 79.6889L118.698 55.9147L87.7334 52.3907L131.232 78.5502L115.443 76.7533L55.0208 40.4162Z" fill="black" fill-opacity="0.15"/>
<path d="M127.808 84.1897L142.831 85.8994L261.284 120.138L219.107 94.7735L235.51 96.6401L297.254 133.772L282.231 132.063L163.514 97.6652L206.616 123.586L190.214 121.72L127.808 84.1897Z" fill="black" fill-opacity="0.15"/>
<path d="M55.0208 40.4162L55.0491 40.1678L54.8919 40.6304L55.0208 40.4162ZM162.326 52.6281L162.454 52.4138L162.408 52.3858L162.354 52.3797L162.326 52.6281ZM222.748 88.9652L222.719 89.2136L222.877 88.751L222.748 88.9652ZM206.959 87.1683L206.83 87.3826L206.876 87.4106L206.93 87.4167L206.959 87.1683ZM163.46 61.0088L163.589 60.7945L163.542 60.7665L163.488 60.7604L163.46 61.0088ZM134.028 57.6592L134.056 57.4108L133.899 57.8735L134.028 57.6592ZM173.56 81.4334L173.532 81.6818L173.689 81.2192L173.56 81.4334ZM158.231 79.6889L158.102 79.9031L158.148 79.9311L158.202 79.9373L158.231 79.6889ZM118.698 55.9147L118.827 55.7004L118.781 55.6724L118.727 55.6663L118.698 55.9147ZM87.7334 52.3907L87.7617 52.1423L87.6046 52.6049L87.7334 52.3907ZM131.232 78.5502L131.204 78.7986L131.361 78.336L131.232 78.5502ZM115.443 76.7533L115.314 76.9676L115.361 76.9956L115.415 77.0017L115.443 76.7533ZM127.808 84.1897L127.837 83.9413L127.679 84.404L127.808 84.1897ZM142.831 85.8994L142.9 85.6592L142.88 85.6534L142.859 85.651L142.831 85.8994ZM261.284 120.138L261.214 120.378L261.413 119.924L261.284 120.138ZM219.107 94.7735L219.136 94.5251L218.979 94.9877L219.107 94.7735ZM235.51 96.6401L235.639 96.4259L235.592 96.3979L235.538 96.3918L235.51 96.6401ZM297.254 133.772L297.226 134.021L297.383 133.558L297.254 133.772ZM282.231 132.063L282.162 132.303L282.182 132.309L282.203 132.311L282.231 132.063ZM163.514 97.6652L163.584 97.4251L163.385 97.8794L163.514 97.6652ZM206.616 123.586L206.588 123.835L206.745 123.372L206.616 123.586ZM190.214 121.72L190.085 121.934L190.131 121.962L190.185 121.968L190.214 121.72ZM275.024 146.921C210.152 139.538 112.187 106.269 56.2353 72.6205L55.9776 73.049C111.99 106.734 210.025 140.027 274.967 147.418L275.024 146.921ZM56.2353 72.6205C42.2483 64.2089 32.2263 56.5788 26.0691 49.987C22.9905 46.6911 20.8872 43.6643 19.7341 40.9386C18.5818 38.2148 18.3838 35.8064 19.0897 33.7277C19.7956 31.6491 21.4193 29.8593 23.992 28.4006C26.5665 26.9408 30.078 25.8208 34.5271 25.0812C43.4251 23.6022 56.021 23.6531 72.2379 25.4986L72.2944 25.0018C56.0578 23.154 43.4093 23.0979 34.4451 24.588C29.9632 25.333 26.3891 26.4666 23.7454 27.9656C21.0998 29.4657 19.3725 31.3401 18.6162 33.567C17.86 35.7939 18.0886 38.3324 19.2736 41.1334C20.4578 43.9324 22.6024 47.008 25.7037 50.3283C31.9067 56.9691 41.9736 64.6271 55.9776 73.049L56.2353 72.6205ZM72.2379 25.4986C137.109 32.8814 235.075 66.1503 291.026 99.7989L291.284 99.3704C235.271 65.6849 137.237 32.3927 72.2944 25.0018L72.2379 25.4986ZM291.026 99.7989C305.013 108.21 315.035 115.841 321.192 122.432C324.271 125.728 326.374 128.755 327.527 131.481C328.68 134.205 328.878 136.613 328.172 138.692C327.466 140.77 325.842 142.56 323.27 144.019C320.695 145.479 317.184 146.599 312.734 147.338C303.836 148.817 291.24 148.766 275.024 146.921L274.967 147.418C291.204 149.265 303.852 149.321 312.816 147.831C317.298 147.086 320.872 145.953 323.516 144.454C326.162 142.954 327.889 141.079 328.645 138.852C329.402 136.626 329.173 134.087 327.988 131.286C326.804 128.487 324.659 125.411 321.558 122.091C315.355 115.45 305.288 107.792 291.284 99.3704L291.026 99.7989ZM54.9925 40.6646L162.297 52.8765L162.354 52.3797L55.0491 40.1678L54.9925 40.6646ZM162.197 52.8423L222.619 89.1795L222.877 88.751L162.454 52.4138L162.197 52.8423ZM222.776 88.7168L206.987 86.9199L206.93 87.4167L222.719 89.2136L222.776 88.7168ZM207.087 86.9541L163.589 60.7945L163.331 61.223L206.83 87.3826L207.087 86.9541ZM163.488 60.7604L134.056 57.4108L133.999 57.9076L163.432 61.2572L163.488 60.7604ZM133.899 57.8735L173.431 81.6477L173.689 81.2192L134.157 57.445L133.899 57.8735ZM173.588 81.185L158.259 79.4405L158.202 79.9373L173.532 81.6818L173.588 81.185ZM158.36 79.4746L118.827 55.7004L118.57 56.1289L158.102 79.9031L158.36 79.4746ZM118.727 55.6663L87.7617 52.1423L87.7051 52.6391L118.67 56.1631L118.727 55.6663ZM87.6046 52.6049L131.103 78.7645L131.361 78.336L87.8623 52.1764L87.6046 52.6049ZM131.26 78.3018L115.471 76.5049L115.415 77.0017L131.204 78.7986L131.26 78.3018ZM115.572 76.5391L55.1496 40.2019L54.8919 40.6304L115.314 76.9676L115.572 76.5391ZM127.78 84.4381L142.803 86.1478L142.859 85.651L127.837 83.9413L127.78 84.4381ZM142.762 86.1396L261.214 120.378L261.353 119.898L142.9 85.6592L142.762 86.1396ZM261.413 119.924L219.236 94.5592L218.979 94.9877L261.155 120.352L261.413 119.924ZM219.079 95.0219L235.481 96.8885L235.538 96.3918L219.136 94.5251L219.079 95.0219ZM235.381 96.8544L297.125 133.987L297.383 133.558L235.639 96.4259L235.381 96.8544ZM297.282 133.524L282.26 131.814L282.203 132.311L297.226 134.021L297.282 133.524ZM282.301 131.823L163.584 97.4251L163.444 97.9053L282.162 132.303L282.301 131.823ZM163.385 97.8794L206.487 123.8L206.745 123.372L163.643 97.451L163.385 97.8794ZM206.644 123.338L190.242 121.471L190.185 121.968L206.588 123.835L206.644 123.338ZM190.342 121.505L127.937 83.9755L127.679 84.404L190.085 121.934L190.342 121.505Z" fill="black" fill-opacity="0.5"/>
</svg>
