<svg width="1600" height="1367" viewBox="0 0 1600 1367" fill="none" xmlns="http://www.w3.org/2000/svg">
<g opacity="0.031064">
<path d="M592.924 367.292C592.799 334.645 543.007 297.934 521.737 279.003C479.682 241.567 435.937 206.997 392.608 171.873C349.279 136.749 305.822 101.723 264.5 63.1616C237.67 38.1316 206.142 9.93958 187.947 -25.8024C149.182 -101.97 271.401 -90.6594 303.061 -92.3253C383.6 -96.5813 475.977 -94.6373 551.469 -134.303C596.535 -157.982 614.505 -197.694 604.826 -255.571C601.705 -274.394 592.471 -296.054 600.295 -314.391C608.648 -333.976 627.866 -345.277 643.816 -352.856C701.993 -380.466 768.882 -383.666 830.436 -387.132C896.811 -390.941 963.809 -389.827 1029.71 -390.121C1057.66 -390.245 1086.85 -402.498 1113.46 -412.458C1148.35 -425.511 1182.82 -440.174 1217.42 -454.35C1293.53 -485.464 1371.97 -518.236 1452.5 -526.136C1502.93 -531.087 1558.05 -524.394 1597.22 -481.331C1616.89 -459.714 1627.19 -427.566 1638.56 -399.013C1652.33 -364.519 1665.55 -329.691 1680.2 -295.739C1727.42 -186.386 1794.82 -79.5365 1904.22 -74.1665C1920.77 -73.3575 1937.03 -75.9945 1953.5 -76.4895C1963.99 -76.7946 1973.33 -73.7006 1977.23 -60.3065C1987.03 -26.7065 1956.22 26.3345 1943.58 52.9935C1915.92 111.349 1884.72 167.088 1855.5 224.266C1836.16 262.084 1802.7 313.766 1802.34 359.711C1802.03 400.651 1846.64 430.243 1870.93 450.411C1893.69 469.292 1934.93 495.711 1937.42 534.12C1938.63 552.742 1928.57 568.176 1918.06 580.154C1899.65 601.099 1878.43 615.874 1861.86 639.773C1834.7 678.98 1812 732.927 1815.69 785.758C1818.25 822.367 1835.36 846.34 1857.13 869.258C1866.28 878.893 1873.7 885.71 1874.19 901.358C1874.97 926.199 1867 952.485 1860.43 975.517C1836.94 1057.93 1803.58 1137.63 1766.46 1212.05C1747.91 1249.24 1727.87 1286.31 1703.28 1318.04C1687.17 1338.87 1665.45 1363.66 1640.89 1363.63C1612.44 1363.63 1582.34 1351.1 1554.69 1341.73C1503.05 1324.23 1452.03 1303.98 1401.22 1283.22C1283.7 1235.18 1167.3 1183.24 1051.99 1127.42C970.776 1088.03 887.835 1048.58 811.477 996.219C796.324 985.713 782.262 973.717 769.5 960.41C755.577 946.192 738.3 939.834 720.784 935.094C612.058 905.664 492.942 928.258 383.765 942.425C356.052 946.014 328.342 949.625 300.551 952.135C276.66 954.297 248.059 960.495 224.841 951.182C179.089 932.854 219.085 865.303 235.994 837.782C295.526 740.868 372.339 658.873 443.531 575.165C477.381 535.3 511.489 495.541 543.499 453.42C560.174 431.521 593.034 395.913 592.924 367.292Z" stroke="white" stroke-width="5"/>
<path d="M613.437 361.787C595.189 327.241 563.173 301.708 536.598 277.677C498.354 243.083 458.908 210.412 420.055 176.799C383.317 145.01 346.502 112.866 312.48 76.7679C291.735 54.756 265.705 28.432 255.88 -4.125C234.565 -74.692 349.234 -63.986 377.542 -65.832C447.919 -70.4 527.703 -71.447 592.816 -108.603C633.472 -131.803 650.174 -170.281 641.503 -223.703C638.503 -242.185 633.103 -257.964 639.942 -276.349C647.849 -297.628 666.034 -310.895 682.705 -320.26C734.927 -349.6 796.656 -355.834 853.265 -361.021C911.747 -366.379 972.677 -370.153 1029.28 -366.237C1051.91 -364.676 1077.97 -373.537 1100.37 -380.332C1134.84 -390.801 1168.95 -402.873 1203.25 -414.107C1272.95 -436.947 1344.46 -458.949 1416.97 -461.453C1469.31 -463.261 1523.89 -453.459 1567.45 -415.573C1611.58 -377.154 1631.17 -317.598 1655.65 -260.983C1697.92 -163.103 1755.01 -44.0959 1852.81 -23.4159C1867.63 -20.2749 1881.89 -21.9789 1896.7 -21.2079C1904.32 -20.8169 1912.99 -19.5798 1916.85 -10.4159C1926.88 13.3761 1899.4 56.8781 1890.15 75.1021C1864.6 125.464 1835.87 173.36 1809.09 222.754C1787.82 261.973 1760.87 305.554 1752.64 352.039C1742.66 408.45 1807.88 448.596 1830.82 488.319C1870.59 557.201 1795.25 596.449 1758.1 629.291C1715.45 666.996 1680.24 735.784 1718.48 794.121C1733.1 816.431 1751.1 829.721 1757.63 858.835C1767.85 904.363 1760.12 956.391 1751.83 1001.4C1739.35 1069.05 1719.58 1135.97 1692.72 1197.12C1673.48 1240.9 1641.55 1309.55 1594.79 1304.4C1563.31 1300.96 1531.31 1288.41 1500.66 1277.31C1454.77 1260.71 1409.45 1241.78 1364.38 1222.11C1260.32 1176.86 1157.42 1126.95 1056.54 1072.06C987.711 1034.59 795.711 881.475 781.263 876.014C738.188 859.74 689.212 862.605 644.802 865.127C585.732 868.479 526.948 877.156 468.216 885.198C440.259 889.005 412.161 893.659 384.061 895.534C364.061 896.867 337.786 898.009 320.261 883.819C286.061 856.135 324.161 792.791 339.922 765.992C388.195 683.834 449.261 612.686 506.522 539.941C534.622 504.221 563.146 468.566 588.652 429.984C598.938 414.406 624.717 383.124 613.437 361.787Z" stroke="white" stroke-width="5"/>
<path d="M623.715 355.659C573.88 286.532 509.176 234.413 449.815 176.678C420.015 147.691 400.933 107.023 375.234 72.4998C361.866 54.5468 345.179 31.8418 342.599 6.81482C335.716 -60.1351 439.069 -51.0852 469.999 -53.6241C529.807 -58.5552 597.372 -62.2942 651.631 -96.4612C684.782 -117.347 701.107 -151.626 694.911 -196.684C692.164 -216.675 687.887 -233.658 694.911 -253.284C702.028 -273.167 716.855 -287.201 731.87 -297.721C775.017 -327.974 828.636 -337.646 877.215 -344.852C934.07 -353.236 991.56 -356.516 1049 -354.652C1099.26 -353.043 1149.27 -371.14 1198.34 -383.068C1263.34 -398.861 1329.53 -412.654 1396.05 -410.568C1448.58 -408.911 1501.53 -395.899 1546.44 -361.314C1592.08 -326.092 1619.51 -273.374 1644.25 -216.486C1681.65 -130.486 1728.25 -15.2452 1810.29 17.4138C1822.22 22.1729 1833.34 22.6968 1845.65 23.5259C1851.63 23.9259 1859.35 24.0499 1862.31 31.6559C1869.45 49.9729 1843.08 85.4808 1835.72 97.8499C1812.23 137.361 1786.77 175.086 1762.69 214.069C1740.22 250.461 1715.74 288.388 1701.77 331.035C1679.55 398.956 1750.58 438.671 1748.59 503.39C1747.35 543.572 1715.81 572.39 1690.84 592.321C1660.09 616.833 1615.82 632.95 1600.44 677.681C1588.97 711 1606.96 730.393 1620.81 755.673C1644.28 798.511 1645.88 856.579 1643.44 906.165C1640.15 973.172 1627.28 1041.16 1605.37 1102.76C1595.46 1130.68 1583.3 1159.72 1565.4 1181.41C1548.63 1201.73 1532.76 1206.94 1510.34 1202.78C1441.73 1190.02 1372.46 1154.47 1306.66 1122.71C1224 1082.8 1142.47 1038.75 1063.38 989.179C1009.45 955.379 954.298 919.611 906.961 872.909C894.623 860.733 881.992 847.502 872.967 831.442C866.147 819.371 863.257 809.405 851.756 802.513C817.685 782.094 770.292 787.435 733.787 789.557C675.41 792.936 617.324 801.933 559.311 810.034C525.458 814.793 461.686 829.768 434.653 793.85C411.32 762.835 439.476 709.955 453.858 682.634C490.239 613.542 537.038 552.903 580.458 490.465C600.358 461.85 606.058 444.606 622.5 412.794C624.461 409.007 626.973 404.644 629.335 399.81C631.766 394.84 633.964 389.334 634.58 384.083C635.885 372.797 629.835 364.183 623.715 355.659Z" stroke="white" stroke-width="5"/>
<path d="M642.968 360.162C596.919 299.038 541.441 248.822 492.005 191.621C469.839 165.975 447.455 139.072 430.565 107.785C421.48 90.9608 411.838 69.7848 414.339 48.8707C421.527 -11.1483 506.531 -5.72925 540.873 -9.24231C591.9 -14.4023 650.523 -19.6044 695.646 -51.9713C725.203 -73.1713 736.287 -104.471 730.768 -144.847C724.844 -188.155 738.089 -219.594 768.232 -243.754C806.023 -274.021 853.732 -286.354 897.606 -295.122C950.252 -305.61 1003.89 -310.276 1057.56 -309.035C1109.64 -307.815 1160.1 -318.467 1211.84 -325.392C1280.44 -334.566 1351.24 -339.092 1419.06 -320.286C1478.11 -303.909 1531.45 -267.822 1571.43 -212.014C1613.2 -153.767 1633.87 -80.3834 1667.79 -15.9445C1688.94 24.2485 1718.43 77.4176 1757.95 93.0415C1771.13 98.2525 1795.16 91.2225 1784.63 116.854C1778.61 131.516 1767.35 144.378 1758.45 156.362C1744.07 175.73 1729.22 194.562 1714.6 213.662C1683.45 254.384 1650.08 295.971 1626.73 344.178C1597.3 404.878 1641.04 451.602 1635.71 513.154C1632.85 546.278 1613.98 572.715 1594.01 593.484C1581.09 606.936 1566.96 618.584 1552.53 629.457C1537.46 640.817 1519.63 649.469 1506.49 664.15C1487.76 685.042 1495.89 709.774 1499.4 736.782C1505.59 784.373 1506.94 832.468 1503.45 880.332C1499.17 939.007 1489.14 999.359 1468.01 1052.68C1459.79 1073.44 1449.38 1095.45 1433.92 1109.36C1418.46 1123.28 1402.47 1122.33 1384.75 1118.14C1332.2 1105.75 1279.76 1076.94 1229.91 1049.62C1167.52 1015.43 1106.35 977.221 1047.94 933.746C1007.62 903.737 967.161 871.317 933.429 830.633C923.618 818.791 914.284 806.111 906.736 791.954C901.554 782.244 898.775 769.719 891.267 762.421C867.774 739.643 820.609 746.444 793.058 747.769C738.073 750.408 683.953 762.955 629.037 766.003C599.067 767.67 552.129 771.861 530.117 740.718C509.417 711.442 528.166 665.333 540.537 637.125C564.849 581.66 597.513 532.245 626.789 480.686C638.824 459.469 652.015 437.272 659.812 413.045C666.738 391.46 654.768 375.834 642.968 360.162Z" stroke="white" stroke-width="5"/>
<path d="M654.298 361.163C617.644 307.376 573.458 259.629 536.539 204.963C514.929 172.952 477.714 119.136 494.426 74.005C512.761 24.414 576.67 23.062 613.612 19.066C657.581 14.309 709.212 7.81091 746.843 -23.1531C758.743 -32.942 768.882 -45.899 773.18 -62.9661C777.78 -81.2301 772.751 -97.213 772.096 -115.498C770.724 -153.854 789.486 -184.648 814.318 -205.798C849.412 -235.698 893.295 -249.834 934.745 -259.689C981.439 -270.775 1029.28 -276.267 1077.28 -276.052C1122.99 -275.861 1168.22 -277.098 1213.99 -278.526C1273.83 -280.426 1334.52 -277.356 1392.57 -257.959C1449.76 -238.838 1501.75 -203.002 1542.6 -150.29C1582.44 -98.8491 1609.32 -35.9811 1632.86 28.0609C1646.22 64.4099 1668.79 118.731 1700.66 137.091C1714.83 145.273 1728.74 144.711 1713.67 165.963C1694.7 192.724 1669.13 214.195 1647.15 237.083C1615.45 270.113 1582.95 303.79 1556.34 343.059C1539.35 368.135 1531.78 392.47 1532.94 424.939C1533.85 449.677 1537.95 474.15 1535.88 498.98C1531.02 557.257 1493.4 597.221 1460.15 634.437C1438.76 658.373 1419.22 676.63 1408.21 710.676C1395.19 750.917 1389.71 794.695 1381.02 836.476C1371.46 882.358 1360.42 930.085 1339.55 970.497C1320.97 1006.48 1298.37 1022.61 1264.56 1012.91C1211.82 997.804 1159.83 960.589 1113.02 926.161C1065.36 891.135 1018.52 851.75 979.027 803.604C957.705 777.604 943.154 747.077 924.218 719.146C900.405 684.081 846.518 697.361 814.499 700.329C761.344 705.257 594.087 742.129 609.52 622.702C615.962 572.853 641.33 526.848 659.883 482.86C667.572 464.605 678.701 442.696 680.44 421.776C682.338 398.997 665.318 377.358 654.298 361.163Z" stroke="white" stroke-width="5"/>
<path d="M673.65 365.731C645.64 316.989 612.119 270.941 588.085 218.296C572.493 184.202 557.185 138.65 577.296 102.575C599.996 61.8655 650.053 52.3745 686.833 47.1885C724.733 41.8495 769.966 37.3555 800.939 6.48853C810.792 -3.34344 818.916 -16.6015 820.429 -32.4785C821.887 -47.7075 817.77 -62.9365 819.134 -78.4415C822.19 -113.258 839.488 -141.941 861.789 -162.752C927.764 -224.305 1025.96 -237.992 1105.56 -239.601C1145.4 -240.401 1186.41 -236.201 1226.51 -233.196C1278.55 -229.296 1330.66 -220.917 1380.29 -200.729C1485.8 -157.82 1556.53 -62.6584 1605.92 55.7556C1621.47 93.0286 1633.36 133.356 1657.72 163.31C1670.28 178.777 1667.53 189.885 1654.7 203.99C1634.62 226.034 1610.14 242.88 1587.86 261.279C1556.17 287.443 1523.8 313.999 1495.77 345.341C1476.46 366.948 1462.74 387.766 1458.58 420.162C1455.61 443.262 1456.31 466.801 1454.52 490.044C1451.12 534.202 1439.48 578.02 1418.88 614.645C1402.51 643.674 1383.02 670.058 1362.88 695.215C1336.58 727.741 1313.72 762.896 1294.66 800.12C1268.29 851.576 1231.25 946.489 1169.15 921.371C1100.65 893.65 1036.46 823.225 992.511 754.992C977.754 732.082 965.639 703.985 945.737 687.092C915.937 661.84 885.71 662.725 850.271 662.83C797.212 662.973 681.759 677.03 680.512 580.023C680.021 541.589 693.647 505.249 700.173 468.281C707.529 426.875 692.78 398.949 673.65 365.731Z" stroke="white" stroke-width="5"/>
<path d="M694.512 370.077C666.807 306.55 604.67 202.167 651.93 131.521C676.89 94.1825 721.037 80.1585 758.072 71.7985C787.872 65.0365 823.818 62.4985 846.336 33.8295C862.887 12.7525 855.536 -17.9225 861.881 -44.3075C869.751 -77.0215 887.816 -103.782 910.014 -123.898C972.047 -180.12 1058.3 -197.375 1132.92 -201.046C1210.42 -204.846 1295.82 -187.058 1368.75 -152.823C1459.68 -110.122 1527.81 -29.2785 1575.45 73.1075C1584.23 92.0075 1592.23 111.401 1600.67 130.529C1606.34 143.359 1614.75 155.766 1619.22 169.266C1626.66 191.766 1617.89 210.167 1603.84 224.831C1583.62 245.946 1558.78 260.975 1535.74 276.821C1504.22 298.507 1472 319.803 1442.68 345.246C1422.98 362.367 1402.35 380.809 1395.3 410.513C1390.49 430.773 1389.49 452.23 1389.66 473.214C1390.04 518.202 1388.1 554.583 1370.89 595.786C1342.58 663.431 1299.04 724.257 1253.04 774.867C1216.94 814.586 1159.83 876.287 1107.23 849.731C1060.04 825.953 1032.44 769.036 1001.34 723.02C986.226 700.65 969.243 680.22 949.294 664.306C924.139 644.246 900.458 635.829 870.654 632.547C820.492 627.02 744.854 625.585 729.354 552.156C723.628 525.056 726.898 496.991 723.894 469.54C719.963 433.242 708.49 402.121 694.512 370.077Z" stroke="white" stroke-width="5"/>
<path d="M723.32 372.43C703.591 302.919 677.674 215.317 725.32 153.539C748.401 123.611 780.867 106.88 812.284 94.3777C834.784 85.4177 870.52 82.7777 884.317 55.2327C894.45 34.9607 895.854 6.99365 905.017 -14.7253C917.081 -43.1554 935.593 -68.3898 959.089 -88.4344C1017.42 -138.604 1093.38 -157.993 1162.65 -163.546C1313.17 -175.589 1466.32 -79.6553 1546.87 78.1807C1570.89 125.229 1601.89 175.306 1563.07 223.371C1520.7 275.808 1456.87 300.371 1406.29 337.635C1386.97 351.86 1362.34 368.962 1351.56 394.719C1345.08 410.202 1344.63 429.629 1344.34 446.671C1343.56 490.081 1340.6 529.122 1326.31 569.628C1304.21 632.228 1268.99 689.976 1229.07 737.282C1194.26 778.532 1144.61 827.007 1094.06 797.27C1055.29 774.418 1030.71 725.912 1000.59 690.154C967.068 650.333 925.619 623.5 880.096 610.392C835.813 597.676 787.243 589.092 763.906 535.045C755.901 516.506 747.536 492.505 744.535 471.981C739.734 438.353 732.647 405.092 723.325 372.428L723.32 372.43Z" stroke="white" stroke-width="5"/>
<path d="M755.443 372.918C746.311 302.727 745.302 229.537 787.707 174.218C807.498 148.41 832.516 130.074 857.814 113.461C876.425 101.238 895.649 90.9279 909.551 70.8879C922.431 52.3339 932.221 30.788 944.651 11.7499C960.431 -12.7916 980.058 -34.634 1002.78 -52.94C1058.16 -97.008 1125.54 -117.619 1190 -124.769C1221.2 -128.244 1255.05 -130.053 1286.05 -120.58C1315.98 -111.441 1345.58 -96.989 1373.1 -80.14C1431.61 -44.3521 1482.31 8.05499 1519.08 74.314C1544.28 119.762 1557.91 163.954 1525.27 210.06C1488.47 262.029 1430.78 290.704 1383.22 324.429C1350.6 347.562 1314.05 370.239 1307.96 419.4C1303.1 458.518 1299.16 495.646 1286.61 532.622C1267.93 587.162 1240.46 636.567 1205.84 677.907C1174.18 715.572 1134.12 747.529 1088.83 727.415C1052.94 711.45 1025.1 675.683 993.747 650.115C958.807 621.556 920.418 605.809 879.992 593.148C843.663 581.724 809.456 564.169 785.975 526.898C780.849 519.107 776.317 510.941 772.417 502.47C767.689 491.604 768.057 480.822 767.128 468.636C764.711 436.473 759.578 404.686 755.443 372.918Z" stroke="white" stroke-width="5"/>
<path d="M790.863 367.186C791.643 300.515 804.781 237.506 840.763 185.548C856.147 163.321 874.517 145.014 891.445 124.648C905.075 108.233 917.956 92.9735 933.629 79.4406C970.806 47.4016 1001.02 5.94055 1040.53 -22.5875C1093.27 -60.7285 1153.69 -81.8115 1213.63 -90.2405C1242.9 -94.3595 1273.14 -95.7995 1302.75 -91.1465C1328.19 -87.1515 1352.55 -73.1245 1375.14 -58.7795C1419.44 -30.6694 1462.45 9.28351 1491.2 59.8306C1554.6 171.267 1429.6 252.292 1365.44 299.739C1335.94 321.565 1290.85 346.839 1278.77 390.077C1270.13 420.962 1264.87 452.371 1253.74 482.303C1223.85 562.684 1163.18 657.226 1082.32 644.64C1047.73 639.262 1016.2 617.417 983.901 602.751C950.645 587.647 916.325 579.228 881.761 569.989C849.461 561.36 823.709 549.079 802.844 516.152C792.871 500.432 793.752 481.606 792.863 462.316C791.408 430.629 790.511 398.763 790.863 367.186Z" stroke="white" stroke-width="5"/>
<path d="M823.114 358.642C836.098 258.008 884.344 148.144 955.281 89.7003C1038.72 20.9543 1129.11 -36.9417 1228.8 -53.5797C1275.02 -61.2967 1325.65 -65.0927 1369.26 -39.8587C1402.45 -20.6657 1441 8.02527 1459.27 48.3683C1503.96 147.051 1404.56 225.61 1347.93 271.268C1317.44 295.846 1278.63 319.796 1255.64 355.687C1242.31 376.494 1235.51 404.025 1224.74 426.88C1192.12 496.138 1138.42 552 1071.53 561.992C1040.61 566.607 1009.46 560.9 978.758 556.359C947.339 551.715 915.526 549.192 884.305 542.719C859.38 537.543 830.005 528.779 820.826 496.227C809.251 455.2 817.813 399.738 823.114 358.642Z" stroke="white" stroke-width="5"/>
<path d="M854.739 342.475C873.683 247.862 913.798 155.575 981.239 99.0914C1017 69.1414 1058.51 48.4664 1098.37 28.0394C1143.55 4.88843 1190.76 -13.0815 1238.96 -21.9955C1298.98 -33.0995 1396.2 -43.1075 1427.57 40.3624C1458.69 123.214 1380.04 196.542 1333.52 238.33C1303.7 265.1 1271.78 289.669 1243.29 318.93C1227.84 334.796 1215.93 353.13 1202.86 371.736C1166.72 423.292 1115.21 464.111 1062.7 485.9C1011.81 507.027 948.849 516.382 895.128 509.398C871.948 506.392 855.38 496.275 848.37 467.498C838.658 427.489 846.909 381.559 854.739 342.475Z" stroke="white" stroke-width="5"/>
<path d="M886.164 316.993C904.983 233.691 945.569 157.611 1004.78 107.611C1071.15 51.5641 1156.61 20.4201 1235.17 4.58307C1276.92 -3.82892 1367.4 -26.6359 1388.68 38.6381C1409.96 103.912 1348.44 168.238 1313.03 203.651C1270.05 246.564 1223.71 287.998 1177.43 326.5C1137.23 359.977 1094.32 394.2 1050.76 420.055C1026.56 434.55 1000.94 446.538 974.302 455.831C954.821 462.545 930.049 472.561 909.623 467.562C858.11 454.94 877.164 356.824 886.164 316.993Z" stroke="white" stroke-width="5"/>
<path d="M924.956 292.047C966.246 134.511 1097.07 57.0376 1223.03 30.0276C1252.3 23.7586 1334.35 1.15759 1350.72 49.2806C1366.57 95.9386 1316.15 151.273 1292.55 177.49C1219.39 258.728 1129.02 318.958 1043.38 378.628C1016.65 397.254 968.444 437.673 935.284 419.028C899.286 398.743 916.402 324.714 924.956 292.047Z" stroke="white" stroke-width="5"/>
<path d="M967.251 261.724C1003.16 145.713 1107.61 79.1758 1203.63 57.2348C1227.15 51.8678 1286.89 35.1558 1304.7 67.5348C1321.18 97.4828 1281.84 140.877 1267.13 158.12C1234.36 196.52 1195.53 228.15 1157.17 258.555C1121.7 286.686 1085.84 315.52 1048.52 339.31C1028.86 351.831 991.99 378.553 969.649 359.216C945.592 338.418 959.279 287.487 967.251 261.724Z" stroke="white" stroke-width="5"/>
<path d="M1013.86 227.832C1041.23 152.071 1114.53 102.874 1179.19 86.525C1196.59 82.132 1234.19 70.748 1248.87 90.981C1262.39 109.614 1240.61 136.931 1230.94 149.547C1188.11 205.465 1125.38 255.415 1067.9 286.093C1053.45 293.806 1027.47 308.944 1012.61 293.376C997.358 277.391 1007.58 245.23 1013.86 227.832Z" stroke="white" stroke-width="5"/>
<path d="M1063.3 196.007C1078.73 158.387 1119.03 130.007 1152.42 120.964C1175.92 114.606 1204.17 120.099 1183.69 152.846C1163.34 185.351 1125.6 215.029 1093.6 228.187C1069.19 238.222 1050.06 228.322 1063.3 196.007Z" stroke="white" stroke-width="5"/>
<path d="M-187.335 456.569C-188.325 382.24 -220.685 305.002 -204.703 229.269C-191.579 167.069 -125.51 161.876 -85.8686 133.699C-54.3686 111.311 -36.4976 71.6532 -19.4686 33.5992C-4.16858 -0.561768 9.58246 -35.7507 25.7044 -69.3517C36.1404 -91.0737 54.0624 -133.728 76.6954 -134.498C98.3624 -135.24 118.231 -101.998 130.818 -82.3517C147.233 -56.7397 161.777 -29.4357 177.712 -3.41473C204.566 40.4763 236.782 72.9643 273.682 103.71C315.67 138.704 358.349 172.496 401.72 205.086C433.653 229.157 465.804 253.047 496.498 279.496C515.747 296.093 558.236 327.227 558.436 357.822C558.53 372.422 547.198 388.588 539.557 400.258C526.629 420.011 511.892 438.071 497.11 455.745C469.578 488.66 440.878 520.083 412.493 551.886C375.641 593.158 340.445 633.753 308.053 680.616C274.562 729.116 242.567 779.216 209.918 828.636C187.807 862.113 165.718 899.707 133.825 920.25C93.8784 945.928 61.0894 918.85 20.6904 918.538C-14.0616 918.262 -11.4987 819.963 -15.9156 792.63C-20.3477 764.964 -30.1157 739.21 -33.8986 711.481C-38.6186 676.863 -38.6806 641.446 -39.8416 606.458C-41.2506 563.658 -41.8066 522.918 -79.2826 506.598C-100.608 497.325 -123.672 495.376 -145.751 489.821C-160.051 486.212 -187.024 480.05 -187.335 456.569Z" stroke="white" stroke-width="5"/>
<path d="M-170.249 443.348C-173.891 381.041 -195.412 301.305 -175.061 236.993C-157.674 182.035 -103.298 174.91 -66.6837 146.041C-36.4576 122.228 -23.0016 83.2621 -7.89368 44.9831C4.22729 14.2751 15.9833 -16.7289 29.7423 -46.4539C39.8823 -68.3609 55.3663 -105.346 76.4503 -109.88C95.4083 -113.957 115.732 -81.306 126.372 -64.694C141.894 -40.444 155.172 -14.108 168.884 11.675C192.978 56.965 217.656 97.6931 252.913 130.963C288.334 164.371 327.086 189.363 366.251 215.363C396.89 235.708 427.374 256.643 456.485 280.129C478.172 297.618 509.35 320.001 519.271 351.186C527.132 375.855 487.29 416.793 475.543 431.241C451.362 460.949 425.738 488.841 400.067 516.552C368.773 550.327 336.479 579.863 308.842 618.393C259.412 687.274 218.09 773.057 154.49 824.256C116.13 855.129 73.4393 863.029 30.7713 858.409C13.8713 856.58 9.81934 827.462 7.69031 810.48C4.14832 782.267 3.70428 753.569 0.990295 725.242C-1.56073 698.725 -7.22272 673.532 -11.7867 647.53C-16.4047 621.184 -17.6997 594.191 -21.1007 567.665C-23.2067 551.197 -25.2897 532.032 -34.5007 518.793C-44.0327 505.087 -59.7578 499.344 -73.5007 494.98C-99.3217 486.866 -167.676 487.314 -170.249 443.348Z" stroke="white" stroke-width="5"/>
<path d="M-148.261 417.267C-154.388 360.079 -162.961 288.85 -138.006 236.161C-117.606 193.079 -74.0981 183.786 -43.0211 155.715C-17.1741 132.371 -7.41013 95.2446 5.41388 60.7436C15.9409 32.4436 26.5239 4.02161 39.2839 -22.9084C48.9609 -43.3304 61.4319 -71.0224 80.6459 -78.1464C97.0729 -84.2333 115.633 -56.9623 124.739 -43.3884C140.246 -20.2544 152.889 5.66663 165.445 31.2456C185.983 73.1036 204.883 117.804 234.122 151.853C262.529 184.889 296.274 204.39 330.651 226.316C356.982 243.116 383.151 260.561 407.959 280.594C427.009 295.968 450.614 314.182 460.543 339.761C469.127 361.82 447.089 387.931 436.077 403.494C417.894 429.177 397.711 452.738 377.816 476.394C356.339 501.916 332.552 525.459 311.77 551.608C268.07 606.632 233.151 667.563 179.286 709.723C144.404 737.034 97.4609 761.842 56.2239 757.382C26.5689 754.167 28.5189 674.054 25.6709 648.456C20.9879 606.602 11.9439 562.626 -2.4191 524.073C-14.7581 491.036 -44.0781 480.849 -71.0491 473.441C-87.9491 468.789 -105.649 466.274 -121.995 459.087C-140.917 450.751 -145.693 441.239 -148.261 417.267Z" stroke="white" stroke-width="5"/>
<path d="M-127.749 390.461C-131.396 342.111 -130.577 284.937 -106.949 243.113C-86.2419 206.479 -49.3759 196.834 -23.1549 167.975C-2.69391 145.46 5.34509 108.749 16.3511 78.9753C29.8011 42.5753 48.6511 -24.6687 82.5791 -38.3698C114.137 -51.1068 147.15 30.2532 158.579 54.5132C176.669 92.9133 191.798 135.023 213.738 170.483C232.632 201.012 257.947 217.888 284.816 236.027C319.077 259.19 371.087 286.658 389.404 331.798C403.057 365.437 358.655 415.446 343.504 438.753C327.648 463.1 315.704 491.959 299.346 515.447C273.52 552.514 231.677 582.355 197.13 605.128C163.538 627.279 119.923 651.798 81.8221 650.336C56.7771 649.382 52.0161 602.177 46.6771 579.118C39.0221 546.338 28.8451 516.964 6.98212 494.669C-15.2699 471.969 -41.4989 461.279 -69.0719 451.919C-83.2249 447.149 -99.3719 443.428 -112.031 433.792C-126.023 423.308 -126.344 409.045 -127.749 390.461Z" stroke="white" stroke-width="5"/>
<path d="M-102.759 362.592C-102.559 320.821 -94.7318 276.279 -71.5318 244.059C-52.2088 217.221 -21.9618 208.25 -3.46381 180.815C11.1882 159.094 18.6462 128.602 28.4562 103.378C40.4562 72.4671 57.4182 18.4702 87.2562 7.74219C116.374 -2.70081 142.128 56.7751 153.292 80.3092C169.641 114.817 182.877 151.395 199.374 185.809C212.298 212.809 228.102 230.209 249.147 247.609C273.847 268.048 308.317 290.69 321.511 324.509C331.025 348.992 307.995 388.109 299.634 409.683C294.029 424.17 288.897 438.883 286.079 454.583C283.879 466.811 283.665 478.127 277.305 488.626C261.29 515.034 226.177 518.483 202.354 527.188C170.713 538.741 137.142 551.871 104.03 554.377C83.6792 555.943 73.2932 533.053 61.6782 516.953C47.9522 497.919 28.5202 484.23 11.5472 469.866C-10.8528 450.879 -35.2278 439.066 -60.4458 426.979C-71.8208 421.52 -85.1838 416.166 -93.9928 405.315C-103.195 394.063 -102.83 377.668 -102.759 362.592Z" stroke="white" stroke-width="5"/>
<path d="M-76.5121 337.795C-72.4901 302.714 -59.9581 269.183 -38.7911 244.383C-22.5651 225.343 -1.01611 214.623 12.0089 191.746C24.1469 170.421 32.5989 146.173 42.6209 123.373C53.2279 99.2677 68.9859 58.9777 93.4489 52.4187C119.814 45.3547 140.124 85.9957 151.37 108.519C165.577 136.985 176.37 167.61 189.07 197.056C198.325 218.489 210.513 238.532 225.285 256.61C240.428 275.088 260.963 292.792 268.625 318.196C275.398 340.702 262.725 367.929 260.488 390.749C258.095 415.13 262.288 440.739 249.024 461.674C221.672 504.844 153.02 496.838 113.773 497.761C75.0479 498.714 43.9129 472.295 12.5729 447.161C-8.12714 430.567 -29.6821 416.516 -50.9051 401.055C-72.5361 385.281 -80.0491 368.668 -76.5121 337.795Z" stroke="white" stroke-width="5"/>
<path d="M-52.1244 317.709C-40.2314 266.886 -3.08937 239.873 23.4626 201.466C45.1876 170.024 61.4776 104.908 98.0626 96.2931C139.604 86.5171 164.471 172.793 178.914 206.086C194.943 243.008 223.484 273.042 235.352 312.126C241.594 332.64 236.232 351.778 232.912 372.287C229.271 394.813 226.532 417.827 213.963 435.95C189.219 471.614 140.899 471.366 106.092 472.347C70.0646 473.367 38.1916 448.927 9.49162 424.535C-20.9554 398.704 -64.3044 369.833 -52.1244 317.709Z" stroke="white" stroke-width="5"/>
<path d="M-32.2111 303.934C-18.8111 267.724 9.34792 238.286 32.1989 210.497C51.2729 187.329 71.7879 140.691 100.864 137.367C135.041 133.448 155.754 183.246 169.202 213.788C182.438 243.788 201.509 275.472 208.838 308.404C216.48 342.71 196.128 388.917 176.719 413.193C155.075 440.259 119.658 450.259 89.2679 449.181C57.4489 448.081 28.2519 425.715 4.15392 402.505C-21.6111 377.699 -47.7901 345.969 -32.2111 303.934Z" stroke="white" stroke-width="5"/>
<path d="M-13.7236 297.116C-0.923569 266.999 21.2644 241.522 41.7224 218.797C57.5114 201.252 80.8074 171.419 103.587 170.688C128.645 169.879 149.881 194.922 159.842 220.588C169.658 245.905 180.006 277.646 181.474 305.419C184.669 365.9 119.678 433.652 70.8764 428.136C24.6084 422.903 -39.2446 357.128 -13.7236 297.116Z" stroke="white" stroke-width="5"/>
<path d="M3.36882 293.797C21.0278 254.556 63.9198 198.614 103.629 197.286C149.208 195.767 160.651 258.019 154.71 303.135C148.674 349.178 96.1238 415.825 54.2218 406.82C13.3248 398.032 -17.5592 340.334 3.36882 293.797Z" stroke="white" stroke-width="5"/>
<path d="M21.415 287.451C36.365 254.596 68.269 213.558 101.545 212.313C141.195 210.844 140.445 263.407 131.455 296.113C122.107 330.078 80.929 388.092 46.213 378.933C12.455 369.992 7.08799 318.941 21.415 287.451Z" stroke="white" stroke-width="5"/>
<path d="M37.1343 283.669C47.0033 260.226 71.6983 230.595 95.1813 229.645C123.881 228.508 118.301 270.195 110.886 290.315C102.072 314.256 72.5293 355.856 47.7373 349.116C23.3273 342.48 28.9923 302.986 37.1343 283.669Z" stroke="white" stroke-width="5"/>
</g>
</svg>
