<svg width="186" height="67" viewBox="0 0 186 67" fill="none" xmlns="http://www.w3.org/2000/svg">
<path d="M178.75 66.5H6.875C3.025 66.5 0 62.87 0 58.25V8.75C0 4.13 3.025 0.5 6.875 0.5H178.75C182.6 0.5 185.625 4.13 185.625 8.75V58.25C185.625 62.87 182.6 66.5 178.75 66.5Z" fill="black"/>
<path fill-rule="evenodd" clip-rule="evenodd" d="M98.175 24.012C99.4125 24.012 100.375 23.5995 101.2 22.7745C102.025 21.9495 102.438 20.987 102.438 19.7495C102.438 18.512 102.025 17.5495 101.2 16.7245C100.375 15.8995 99.4125 15.487 98.175 15.487C96.9376 15.487 95.975 15.8995 95.1501 16.7245C94.325 17.5495 93.9125 18.512 93.9125 19.7495C93.9125 20.987 94.325 21.9495 95.1501 22.7745C95.975 23.5995 96.9375 24.012 98.175 24.012ZM82.3625 15.6245V23.8745H83.4625V15.6245H82.3625ZM88 23.8745H87.0375V16.587H84.7V15.6245H90.3375V16.587H88V23.8745ZM95.975 22.087C96.525 22.637 97.35 23.0495 98.175 23.0495C99 23.0495 99.825 22.7745 100.375 22.087C100.925 21.537 101.338 20.712 101.338 19.7495C101.338 18.787 101.063 17.962 100.375 17.412C99.825 16.862 99 16.4495 98.175 16.4495C97.35 16.4495 96.525 16.7245 95.975 17.412C95.425 17.962 95.0125 18.787 95.0125 19.7495C95.0125 20.712 95.2875 21.537 95.975 22.087ZM103.95 15.6245V23.8745H103.95H104.913V17.137L109.175 23.8745H110.275V15.6245H109.175V22.087L105.188 15.6245H103.95Z" fill="white"/>
<path d="M101.2 22.7745L101.129 22.7038L101.129 22.7038L101.2 22.7745ZM101.2 16.7245L101.129 16.7952L101.129 16.7952L101.2 16.7245ZM95.1501 16.7245L95.2208 16.7952L95.2208 16.7952L95.1501 16.7245ZM95.1501 22.7745L95.2208 22.7038L95.2208 22.7038L95.1501 22.7745ZM82.3625 23.8745H82.2625V23.9745H82.3625V23.8745ZM82.3625 15.6245V15.5245H82.2625V15.6245H82.3625ZM83.4625 23.8745V23.9745H83.5625V23.8745H83.4625ZM83.4625 15.6245H83.5625V15.5245H83.4625V15.6245ZM87.0375 23.8745H86.9375V23.9745H87.0375V23.8745ZM88 23.8745V23.9745H88.1V23.8745H88ZM87.0375 16.587H87.1375V16.487H87.0375V16.587ZM84.7 16.587H84.6V16.687H84.7V16.587ZM84.7 15.6245V15.5245H84.6V15.6245H84.7ZM90.3375 15.6245H90.4375V15.5245H90.3375V15.6245ZM90.3375 16.587V16.687H90.4375V16.587H90.3375ZM88 16.587V16.487H87.9V16.587H88ZM95.975 22.087L96.0462 22.0159L96.0375 22.0089L95.975 22.087ZM100.375 22.087L100.304 22.0159L100.297 22.0245L100.375 22.087ZM100.375 17.412L100.304 17.4831L100.313 17.4901L100.375 17.412ZM95.975 17.412L96.0462 17.4831L96.0531 17.4745L95.975 17.412ZM103.95 23.8745H103.85V23.9745H103.95V23.8745ZM103.95 15.6245V15.5245H103.85V15.6245H103.95ZM104.913 23.8745V23.9745H105.013V23.8745H104.913ZM104.913 17.137L104.997 17.0835L104.813 16.7919V17.137H104.913ZM109.175 23.8745L109.091 23.928L109.12 23.9745H109.175V23.8745ZM110.275 23.8745V23.9745H110.375V23.8745H110.275ZM110.275 15.6245H110.375V15.5245H110.275V15.6245ZM109.175 15.6245V15.5245H109.075V15.6245H109.175ZM109.175 22.087L109.09 22.1395L109.275 22.4395V22.087H109.175ZM105.188 15.6245L105.273 15.572L105.243 15.5245H105.188V15.6245ZM101.129 22.7038C100.323 23.51 99.3861 23.912 98.175 23.912V24.112C99.439 24.112 100.427 23.689 101.271 22.8452L101.129 22.7038ZM102.338 19.7495C102.338 20.9605 101.936 21.8976 101.129 22.7038L101.271 22.8452C102.115 22.0014 102.538 21.0135 102.538 19.7495H102.338ZM101.129 16.7952C101.936 17.6014 102.338 18.5385 102.338 19.7495H102.538C102.538 18.4855 102.115 17.4976 101.271 16.6538L101.129 16.7952ZM98.175 15.587C99.3861 15.587 100.323 15.989 101.129 16.7952L101.271 16.6538C100.427 15.81 99.439 15.387 98.175 15.387V15.587ZM95.2208 16.7952C96.027 15.989 96.964 15.587 98.175 15.587V15.387C96.9111 15.387 95.9231 15.81 95.0793 16.6538L95.2208 16.7952ZM94.0125 19.7495C94.0125 18.5385 94.4145 17.6014 95.2208 16.7952L95.0793 16.6538C94.2355 17.4976 93.8125 18.4855 93.8125 19.7495H94.0125ZM95.2208 22.7038C94.4145 21.8976 94.0125 20.9605 94.0125 19.7495H93.8125C93.8125 21.0135 94.2355 22.0014 95.0793 22.8452L95.2208 22.7038ZM98.175 23.912C96.964 23.912 96.027 23.51 95.2208 22.7038L95.0793 22.8452C95.9231 23.689 96.9111 24.112 98.175 24.112V23.912ZM82.4625 23.8745V15.6245H82.2625V23.8745H82.4625ZM83.4625 23.7745H82.3625V23.9745H83.4625V23.7745ZM83.3625 15.6245V23.8745H83.5625V15.6245H83.3625ZM82.3625 15.7245H83.4625V15.5245H82.3625V15.7245ZM87.0375 23.9745H88V23.7745H87.0375V23.9745ZM86.9375 16.587V23.8745H87.1375V16.587H86.9375ZM84.7 16.687H87.0375V16.487H84.7V16.687ZM84.6 15.6245V16.587H84.8V15.6245H84.6ZM90.3375 15.5245H84.7V15.7245H90.3375V15.5245ZM90.4375 16.587V15.6245H90.2375V16.587H90.4375ZM88 16.687H90.3375V16.487H88V16.687ZM88.1 23.8745V16.587H87.9V23.8745H88.1ZM98.175 22.9495C97.3813 22.9495 96.5806 22.5511 96.0457 22.0163L95.9043 22.1577C96.4695 22.7229 97.3188 23.1495 98.175 23.1495V22.9495ZM100.297 22.0245C99.7711 22.6818 98.979 22.9495 98.175 22.9495V23.1495C99.021 23.1495 99.879 22.8672 100.453 22.1495L100.297 22.0245ZM101.238 19.7495C101.238 20.683 100.837 21.4832 100.304 22.0163L100.446 22.1577C101.013 21.5908 101.438 20.741 101.438 19.7495H101.238ZM100.313 17.4901C100.968 18.0147 101.238 18.8054 101.238 19.7495H101.438C101.438 18.7686 101.157 17.9093 100.438 17.3339L100.313 17.4901ZM98.175 16.5495C98.9688 16.5495 99.7695 16.9479 100.304 17.4827L100.446 17.3413C99.8806 16.7761 99.0313 16.3495 98.175 16.3495V16.5495ZM96.0531 17.4745C96.579 16.8172 97.371 16.5495 98.175 16.5495V16.3495C97.329 16.3495 96.4711 16.6318 95.897 17.3495L96.0531 17.4745ZM95.1125 19.7495C95.1125 18.816 95.5127 18.0158 96.0457 17.4827L95.9043 17.3413C95.3374 17.9082 94.9125 18.758 94.9125 19.7495H95.1125ZM96.0375 22.0089C95.3817 21.4843 95.1125 20.6936 95.1125 19.7495H94.9125C94.9125 20.7304 95.1934 21.5897 95.9126 22.1651L96.0375 22.0089ZM104.05 23.8745V15.6245H103.85V23.8745H104.05ZM103.95 23.7745H103.95V23.9745H103.95V23.7745ZM104.913 23.7745H103.95V23.9745H104.913V23.7745ZM104.813 17.137V23.8745H105.013V17.137H104.813ZM109.26 23.821L104.997 17.0835L104.828 17.1905L109.091 23.928L109.26 23.821ZM110.275 23.7745H109.175V23.9745H110.275V23.7745ZM110.175 15.6245V23.8745H110.375V15.6245H110.175ZM109.175 15.7245H110.275V15.5245H109.175V15.7245ZM109.275 22.087V15.6245H109.075V22.087H109.275ZM105.102 15.677L109.09 22.1395L109.26 22.0345L105.273 15.572L105.102 15.677ZM103.95 15.7245H105.188V15.5245H103.95V15.7245Z" fill="white"/>
<path fill-rule="evenodd" clip-rule="evenodd" d="M65.5879 37.763V40.238H71.5004C71.3629 41.613 70.8129 42.713 70.1254 43.4005C69.3004 44.2255 67.9254 45.188 65.5879 45.188C61.8754 45.188 59.1254 42.3005 59.1254 38.588C59.1254 34.8755 62.0129 31.988 65.5879 31.988C67.5129 31.988 69.0254 32.813 70.1254 33.7755L71.9129 31.988C70.4004 30.613 68.4754 29.513 65.7254 29.513C60.7754 29.513 56.5129 33.638 56.5129 38.588C56.5129 43.538 60.7754 47.663 65.7254 47.663C68.4754 47.663 70.4004 46.838 72.0504 45.0505C73.7004 43.4005 74.2504 41.063 74.2504 39.2755C74.2504 38.7255 74.2504 38.1755 74.1129 37.763L65.5879 37.763ZM80.8504 35.9755C77.5504 35.9755 74.9379 38.4505 74.9379 41.888C74.9379 45.188 77.5504 47.8005 80.8504 47.8005C84.1504 47.8005 86.7629 45.3255 86.7629 41.888C86.7629 38.313 84.1504 35.9755 80.8504 35.9755ZM87.7254 41.888C87.7254 38.4505 90.3379 35.9755 93.6379 35.9755C96.9379 35.9755 99.5505 38.313 99.5505 41.888C99.5505 45.3255 96.9379 47.8005 93.6379 47.8005C90.3379 47.8005 87.7254 45.188 87.7254 41.888ZM90.3379 41.7505C90.3379 43.813 91.8504 45.3255 93.6379 45.3255C95.4255 45.3255 96.9379 43.813 96.9379 41.7505C96.9379 39.5505 95.4255 38.1755 93.6379 38.1755C91.8504 38.1755 90.3379 39.688 90.3379 41.7505ZM77.5504 41.7505C77.5504 43.813 79.0629 45.3255 80.8504 45.3255C82.6379 45.3255 84.1504 43.813 84.1504 41.7505C84.1504 39.5505 82.6379 38.1755 80.8504 38.1755C79.0629 38.1755 77.5504 39.688 77.5504 41.7505ZM123.063 35.9755C126.088 35.9755 127.463 38.313 128.013 39.688L128.288 40.3755L120.45 43.6755C121.138 44.913 121.963 45.463 123.338 45.463C124.713 45.463 125.538 44.7755 126.225 43.813L128.15 45.188C127.6 46.1505 125.95 47.8005 123.338 47.8005C120.038 47.8005 117.563 45.188 117.563 41.888C117.563 38.313 120.038 35.9755 123.063 35.9755ZM120.038 41.613C120.038 39.413 121.825 38.1755 123.063 38.1755C124.025 38.1755 124.988 38.7255 125.263 39.413L120.038 41.613ZM116.188 47.2505H113.575V30.063H116.188V47.2505ZM109.45 37.213C108.763 36.5255 107.663 35.838 106.288 35.838C103.4 35.838 100.65 38.4505 100.65 41.7505C100.65 45.0505 103.263 47.5255 106.288 47.5255C107.663 47.5255 108.763 46.838 109.313 46.1505H109.45V46.9755C109.45 49.1755 108.213 50.413 106.288 50.413C104.775 50.413 103.675 49.313 103.4 48.3505L101.2 49.313C101.888 50.8255 103.538 52.7505 106.425 52.7505C109.45 52.7505 111.925 50.963 111.925 46.7005V36.2505H109.45L109.45 37.213ZM103.125 41.7505C103.125 43.813 104.638 45.3255 106.425 45.3255C108.213 45.3255 109.588 43.813 109.588 41.7505C109.588 39.688 108.213 38.1755 106.425 38.1755C104.638 38.1755 103.125 39.688 103.125 41.7505ZM139.975 30.063H133.788V47.2505H136.4V40.788H139.975C142.863 40.788 145.613 38.7255 145.613 35.4255C145.613 32.1255 142.863 30.063 139.975 30.063ZM136.4 38.313H140.113C141.9 38.313 143 36.8005 143.138 35.288C143.138 34.0505 142.038 32.4005 140.113 32.4005H136.4V38.313ZM155.925 35.838C154 35.838 152.075 36.663 151.388 38.4505L153.725 39.413C154.275 38.4505 155.1 38.1755 156.063 38.1755C157.438 38.1755 158.675 39.0005 158.813 40.3755V40.513C158.4 40.238 157.3 39.8255 156.2 39.8255C153.725 39.8255 151.25 41.2005 151.25 43.6755C151.25 46.013 153.313 47.5255 155.513 47.5255C157.3 47.5255 158.125 46.7005 158.813 45.8755H158.95V47.2505H161.425V40.6505C161.15 37.6255 158.813 35.838 155.925 35.838ZM153.588 43.813C153.588 44.913 154.825 45.3255 155.65 45.3255C157.025 45.3255 158.4 44.2255 158.675 42.5755C158.606 42.5477 158.538 42.5199 158.471 42.4924C157.871 42.2477 157.327 42.0255 156.338 42.0255C155.1 42.0255 153.588 42.438 153.588 43.813ZM170.088 36.2505L167.2 43.6755H167.063L164.038 36.2505H161.288L165.825 46.7005L163.213 52.4755H165.825L172.838 36.2505H170.088ZM149.6 47.2505H146.988V30.063H149.6V47.2505Z" fill="white"/>
<path d="M14.3 16.312C13.8875 16.7245 13.75 17.412 13.75 18.237V48.6245C13.75 49.4495 14.025 50.137 14.4375 50.5495L14.575 50.687L31.625 33.637V33.362L14.3 16.312Z" fill="url(#paint0_linear_129167_180891)"/>
<path d="M37.1255 39.4125L31.488 33.775V33.3625L37.1255 27.725L37.263 27.8625L44.0005 31.7125C45.9255 32.8125 45.9255 34.6 44.0005 35.7L37.1255 39.4125Z" fill="url(#paint1_linear_129167_180891)"/>
<path d="M37.2626 39.275L31.4876 33.5L14.3 50.6875C14.9875 51.375 15.95 51.375 17.1876 50.825L37.2626 39.275Z" fill="url(#paint2_linear_129167_180891)"/>
<path d="M37.2626 27.7245L17.1876 16.312C15.9501 15.6245 14.9875 15.762 14.3 16.4495L31.4876 33.4995L37.2626 27.7245H37.2626Z" fill="url(#paint3_linear_129167_180891)"/>
<path opacity="0.2" d="M37.1251 39.137L17.1876 50.412C16.0875 51.0995 15.1251 50.962 14.4376 50.412L14.3 50.5495L14.4376 50.687C15.1251 51.237 16.0875 51.3745 17.1876 50.687L37.1251 39.137Z" fill="black"/>
<path opacity="0.12" fill-rule="evenodd" clip-rule="evenodd" d="M37.125 39.1375L44 35.2875C44.825 34.7375 45.375 34.1875 45.375 33.5C45.375 34.1875 44.9625 34.875 44 35.425L37.2625 39.275L37.125 39.1375ZM13.75 48.4875C13.75 48.6823 13.7577 48.8694 13.7748 49.0471C13.7585 48.9112 13.75 48.7702 13.75 48.625V48.4875ZM13.7748 49.0471C13.8414 49.6032 14.0381 50.0754 14.3134 50.4125L13.7748 49.0471ZM14.3134 50.4125H14.4375V50.55C14.3946 50.5071 14.3532 50.4612 14.3134 50.4125Z" fill="black"/>
<path opacity="0.25" d="M17.1875 16.4496L44 31.7121C44.825 32.2621 45.375 32.8121 45.375 33.4996C45.375 32.8121 44.9625 32.1246 44 31.5746L17.1875 16.3121C15.2625 15.2121 13.75 16.0371 13.75 18.2371V18.3746C13.75 16.3121 15.2625 15.3496 17.1875 16.4496Z" fill="white"/>
<defs>
<linearGradient id="paint0_linear_129167_180891" x1="35.9746" y1="29.5842" x2="8.65596" y2="22.1977" gradientUnits="userSpaceOnUse">
<stop stop-color="#00A0FF"/>
<stop offset="0.007" stop-color="#00A1FF"/>
<stop offset="0.26" stop-color="#00BEFF"/>
<stop offset="0.512" stop-color="#00D2FF"/>
<stop offset="0.76" stop-color="#00DFFF"/>
<stop offset="1" stop-color="#00E3FF"/>
</linearGradient>
<linearGradient id="paint1_linear_129167_180891" x1="46.5223" y1="22.3175" x2="13.2514" y2="22.3175" gradientUnits="userSpaceOnUse">
<stop stop-color="#FFE000"/>
<stop offset="0.409" stop-color="#FFBD00"/>
<stop offset="0.775" stop-color="#FFA500"/>
<stop offset="1" stop-color="#FF9C00"/>
</linearGradient>
<linearGradient id="paint2_linear_129167_180891" x1="54.4103" y1="21.0178" x2="32.4581" y2="-15.8377" gradientUnits="userSpaceOnUse">
<stop stop-color="#FF3A44"/>
<stop offset="1" stop-color="#C31162"/>
</linearGradient>
<linearGradient id="paint3_linear_129167_180891" x1="19.1289" y1="68.8749" x2="28.8547" y2="52.3938" gradientUnits="userSpaceOnUse">
<stop stop-color="#32A071"/>
<stop offset="0.069" stop-color="#2DA771"/>
<stop offset="0.476" stop-color="#15CF74"/>
<stop offset="0.801" stop-color="#06E775"/>
<stop offset="1" stop-color="#00F076"/>
</linearGradient>
</defs>
</svg>
