<svg width="60" height="60" viewBox="0 0 60 60" fill="none" xmlns="http://www.w3.org/2000/svg">
<path d="M30 60C46.5685 60 60 46.5685 60 30C60 13.4315 46.5685 0 30 0C13.4315 0 0 13.4315 0 30C0 46.5685 13.4315 60 30 60Z" fill="#FC9211"/>
<path d="M19.9461 27.315C19.4241 27.141 19.4191 26.86 19.9561 26.681L39.0431 20.319C39.5721 20.143 39.8751 20.439 39.7271 20.957L34.2731 40.043C34.1231 40.572 33.8181 40.59 33.5941 40.088L30.0001 32L36.0001 24L28.0001 30L19.9461 27.315L19.9461 27.315Z" fill="white"/>
</svg>
