<svg width="108" height="32" viewBox="0 0 108 32" fill="none" xmlns="http://www.w3.org/2000/svg">
<rect width="108" height="32" fill="#E5E5E5"/>
<rect width="1440" height="900" transform="translate(-661 -119)" fill="#F4F5F7"/>
<g clip-path="url(#clip0_64_28702)">
<path d="M95.9479 19.8023H103.263L95.757 30.3947V32H107.321V29.3592H99.6475L107.321 18.492V17.1816H95.9479V19.8023Z" fill="#526165"/>
<path d="M92.0893 29.2522H83.7791V25.9113H91.7914V23.308H83.7791V19.8862H92.0893V17.1816H81.0109V32H92.0893V29.2522Z" fill="#526165"/>
<path d="M76.516 29.2522H68.2086V25.9113H76.2209V23.308H68.2086V19.8862H76.516V17.1816H65.4376V32H76.516V29.2522Z" fill="#526165"/>
<path d="M53.9253 32H56.7166V19.7184H61.4083V17.1816H49.2308V19.7184H53.9253V32Z" fill="#526165"/>
<path d="M42.3697 26.3713L35.1182 17.1818H32.8562V32.0002H35.6475V22.0094L43.4255 32.0002H45.161V10.6187L42.3697 12.036V26.3713Z" fill="#526165"/>
<path d="M27.6641 29.2522H19.3568V25.9113H27.3691V23.308H19.3568V19.8862H27.6641V17.1816H16.5858V32H27.6641V29.2522Z" fill="#526165"/>
<path d="M7.04038 19.7823C7.42912 19.7753 7.81543 19.845 8.17714 19.9877C8.4773 20.111 8.74682 20.2986 8.9668 20.5372C9.16976 20.7578 9.32706 21.0163 9.42961 21.298C9.52724 21.5769 9.57711 21.8702 9.57712 22.1657C9.5767 22.4609 9.52784 22.7541 9.43249 23.0335C9.33029 23.3272 9.16605 23.5955 8.95094 23.8201C8.73582 24.0447 8.47486 24.2204 8.18581 24.3351C7.81699 24.4773 7.42398 24.546 7.0288 24.5376H2.79126V19.7823H7.04038ZM13.1147 31.8123L8.63416 26.7591C9.26226 26.6413 9.86332 26.4089 10.4073 26.0735C10.8635 25.7906 11.2572 25.4176 11.5643 24.9773C11.8515 24.5601 12.0639 24.0962 12.192 23.6062C12.322 23.1136 12.3862 22.6058 12.3829 22.0963C12.3867 21.4639 12.2699 20.8366 12.0387 20.248C11.8119 19.6626 11.4673 19.1299 11.0263 18.6831C10.5522 18.2085 9.98355 17.8389 9.35729 17.5984C8.61885 17.3159 7.83389 17.1746 7.04327 17.1819C5.86891 17.1935 4.6955 17.1935 3.52307 17.1819H0.00286865V32.0003H2.79415V27.0541H5.47842L9.79117 32.0003H13.1089V31.8181L13.1147 31.8123Z" fill="#526165"/>
<path d="M57.1332 0L65.0153 4.42556L72.8974 0L97.1715 13.6325L72.8974 3.54334L67.4624 5.8024L81.4101 13.6325L57.1332 3.54334L32.8562 13.6325L42.3697 8.28998V5.05903H45.161V6.72223L57.1332 0Z" fill="#33A0A6"/>
<path fill-rule="evenodd" clip-rule="evenodd" d="M55.1749 7.75781H56.7976V9.38051H55.1749V7.75781ZM56.7976 10.0516V11.6743H55.1749V10.0516H56.7976ZM57.4687 7.75781H59.0914V9.38051H57.4687V7.75781ZM59.0914 10.0516V11.6743H57.4687V10.0516H59.0914Z" fill="#526165"/>
</g>
<defs>
<clipPath id="clip0_64_28702">
<rect width="107.321" height="32" fill="white"/>
</clipPath>
</defs>
</svg>
