<svg width="108" height="32" viewBox="0 0 108 32" fill="none" xmlns="http://www.w3.org/2000/svg">
<rect width="108" height="32" fill="#E5E5E5"/>
<rect width="1440" height="1074" transform="translate(-666 -119)" fill="#E5E5E5"/>
<g clip-path="url(#clip0_64_28702)">
<path d="M95.9477 19.8023H103.263L95.7568 30.3947V32H107.321V29.3592H99.6473L107.321 18.492V17.1816H95.9477V19.8023Z" fill="#526165"/>
<path d="M92.0891 29.2522H83.7789V25.9113H91.7912V23.308H83.7789V19.8862H92.0891V17.1816H81.0107V32H92.0891V29.2522Z" fill="#526165"/>
<path d="M76.5159 29.2522H68.2085V25.9113H76.2208V23.308H68.2085V19.8862H76.5159V17.1816H65.4375V32H76.5159V29.2522Z" fill="#526165"/>
<path d="M53.9255 32H56.7168V19.7184H61.4085V17.1816H49.231V19.7184H53.9255V32Z" fill="#526165"/>
<path d="M42.37 26.3713L35.1184 17.1818H32.8564V32.0002H35.6477V22.0094L43.4257 32.0002H45.1612V10.6187L42.37 12.036V26.3713Z" fill="#526165"/>
<path d="M27.6643 29.2522H19.357V25.9113H27.3693V23.308H19.357V19.8862H27.6643V17.1816H16.5859V32H27.6643V29.2522Z" fill="#526165"/>
<path d="M7.04044 19.7823C7.42918 19.7753 7.81549 19.845 8.1772 19.9877C8.47736 20.111 8.74688 20.2986 8.96686 20.5372C9.16983 20.7578 9.32712 21.0163 9.42967 21.298C9.5273 21.5769 9.57717 21.8702 9.57718 22.1657C9.57676 22.4609 9.5279 22.7541 9.43255 23.0335C9.33035 23.3272 9.16612 23.5955 8.951 23.8201C8.73588 24.0447 8.47493 24.2204 8.18588 24.3351C7.81706 24.4773 7.42404 24.546 7.02887 24.5376H2.79132V19.7823H7.04044ZM13.1147 31.8123L8.63422 26.7591C9.26232 26.6413 9.86338 26.4089 10.4073 26.0735C10.8636 25.7906 11.2573 25.4176 11.5644 24.9773C11.8515 24.5601 12.0639 24.0962 12.192 23.6062C12.3221 23.1136 12.3863 22.6058 12.3829 22.0963C12.3868 21.4639 12.27 20.8366 12.0387 20.248C11.812 19.6626 11.4674 19.1299 11.0263 18.6831C10.5523 18.2085 9.98362 17.8389 9.35735 17.5984C8.61891 17.3159 7.83395 17.1746 7.04333 17.1819C5.86897 17.1935 4.69556 17.1935 3.52313 17.1819H0.00292969V32.0003H2.79421V27.0541H5.47848L9.79123 32.0003H13.109V31.8181L13.1147 31.8123Z" fill="#526165"/>
<path d="M57.1334 0L65.0155 4.42556L72.8977 0L97.1717 13.6325L72.8977 3.54334L67.4626 5.8024L81.4104 13.6325L57.1334 3.54334L32.8564 13.6325L42.37 8.28998V5.05903H45.1612V6.72223L57.1334 0Z" fill="#33A0A6"/>
<path fill-rule="evenodd" clip-rule="evenodd" d="M55.1748 7.75781H56.7975V9.38051H55.1748V7.75781ZM56.7975 10.0516V11.6743H55.1748V10.0516H56.7975ZM57.4686 7.75781H59.0913V9.38051H57.4686V7.75781ZM59.0913 10.0516V11.6743H57.4686V10.0516H59.0913Z" fill="#526165"/>
</g>
<defs>
<clipPath id="clip0_64_28702">
<rect width="107.321" height="32" fill="white"/>
</clipPath>
</defs>
</svg>
