<svg width="30" height="30" viewBox="0 0 30 30" fill="none" xmlns="http://www.w3.org/2000/svg">
<g id="tools-fill">
<path id="Path 1173" fill-rule="evenodd" clip-rule="evenodd" d="M6.12117 3.33984C7.82812 2.73089 9.73316 3.15985 11.0144 4.44163C12.2956 5.72341 12.7237 7.62863 12.114 9.3353L26.6471 23.8683L23.8035 26.7106L9.27035 12.1789C7.56339 12.7879 5.65835 12.3589 4.37714 11.0771C3.09592 9.79535 2.66781 7.89013 3.27752 6.18346L6.27394 9.18119C7.05872 9.9664 8.33145 9.9664 9.11645 9.1814C9.90145 8.39641 9.90145 7.12368 9.11645 6.33869L6.12117 3.33984ZM20.0137 5.86452L24.2779 3.49528L26.1727 5.39014L23.8035 9.65423L21.4342 10.1286L18.5933 12.9709L16.697 11.076L19.5393 8.23376L20.0137 5.86452ZM10.5387 16.2882L10.5381 16.2876H10.5394L10.5387 16.2882ZM10.5387 16.2882L3.90602 22.9209L3.77603 23.0643C3.09931 23.8921 3.18909 25.1048 3.98034 25.824C4.7716 26.5431 5.98737 26.517 6.74698 25.7645L13.3804 19.1312L10.5387 16.2882Z" fill="#416FF4"/>
</g>
</svg>
