<svg width="60" height="60" viewBox="0 0 60 60" fill="none" xmlns="http://www.w3.org/2000/svg">
<path d="M30 60C46.5685 60 60 46.5685 60 30C60 13.4315 46.5685 0 30 0C13.4315 0 0 13.4315 0 30C0 46.5685 13.4315 60 30 60Z" fill="#19C0CC"/>
<path fill-rule="evenodd" clip-rule="evenodd" d="M24 25C24 28.3137 26.6863 31 30 31C33.3137 31 36 28.3137 36 25C36 21.6863 33.3137 19 30 19C26.6863 19 24 21.6863 24 25ZM22 38V40H38V38C38 35.2386 35.7614 33 33 33H27C24.2386 33 22 35.2386 22 38Z" fill="white"/>
</svg>
