<svg width="17" height="13" viewBox="0 0 17 13" fill="none" xmlns="http://www.w3.org/2000/svg">
<path fill-rule="evenodd" clip-rule="evenodd" d="M17 6.5C17 6.5 17 3.4775 16.6115 2.02963C16.3982 1.23175 15.7675 0.602875 14.9642 0.38675C13.5116 0 8.5 0 8.5 0C8.5 0 3.49095 0 2.03575 0.38675C1.2359 0.599625 0.60435 1.22931 0.38845 2.02963C0 3.4775 0 6.5 0 6.5C0 6.5 0 9.5225 0.38845 10.9704C0.6018 11.7683 1.2325 12.3971 2.03575 12.6132C3.49095 13 8.5 13 8.5 13C8.5 13 13.5116 13 14.9642 12.6132C15.7641 12.4004 16.3956 11.7707 16.6115 10.9704C17 9.5225 17 6.5 17 6.5ZM11.9 6.5L6.8 9.34375V3.65625L11.9 6.5Z" fill="#33A0A6"/>
</svg>
